<?xml version="1.0" encoding="utf-8"?>
<!-- Generator: Adobe Illustrator 27.5.0, SVG Export Plug-In . SVG Version: 6.00 Build 0)  -->
<svg version="1.1" xmlns="http://www.w3.org/2000/svg" xmlns:xlink="http://www.w3.org/1999/xlink" x="0px" y="0px"
	 viewBox="0 0 500 500" style="enable-background:new 0 0 500 500;" xml:space="preserve">
<g id="Background_complete">
	<g>
		<g id="freepik--background-complete--inject-481_00000143596949859220995160000005750163787979038107_">
			<g>
				<polygon style="fill:#F0F0F0;" points="434.137,262.804 434.137,217.916 406.344,217.916 406.344,228.152 387.819,228.152 
					387.819,116.021 352.198,116.021 352.198,160.155 341.511,160.155 341.511,138.116 313.718,138.116 313.718,245.596 
					274.528,245.596 274.528,207.623 249.955,207.623 249.955,125.29 219.628,125.29 219.628,180.178 191.125,180.178 
					191.125,298.424 169.041,298.424 169.041,240.844 146.236,240.844 146.236,203.794 122.013,203.794 122.013,175.347 
					94.985,189.604 94.985,265.71 66.482,265.71 66.482,250.011 28.407,250.011 28.407,391.359 471.593,391.573 471.593,262.804 
									"/>
				<rect x="226.565" y="135.008" style="fill:#FAFAFA;" width="8.874" height="10.169"/>
				<rect x="226.565" y="152.058" style="fill:#FAFAFA;" width="8.874" height="10.169"/>
				<rect x="226.565" y="169.12" style="fill:#FAFAFA;" width="8.874" height="10.169"/>
				<rect x="226.565" y="186.169" style="fill:#FAFAFA;" width="8.874" height="10.169"/>
				<rect x="226.565" y="203.219" style="fill:#FAFAFA;" width="8.874" height="10.169"/>
				<rect x="226.565" y="220.281" style="fill:#FAFAFA;" width="8.874" height="10.169"/>
				<rect x="226.565" y="237.331" style="fill:#FAFAFA;" width="8.874" height="10.169"/>
				<rect x="226.565" y="254.392" style="fill:#FAFAFA;" width="8.874" height="10.169"/>
				<rect x="359.867" y="121.393" style="fill:#FAFAFA;" width="8.874" height="10.169"/>
				<rect x="359.867" y="138.443" style="fill:#FAFAFA;" width="8.874" height="10.169"/>
				<rect x="359.867" y="155.504" style="fill:#FAFAFA;" width="8.874" height="10.169"/>
				<rect x="359.867" y="172.554" style="fill:#FAFAFA;" width="8.874" height="10.169"/>
				<rect x="359.867" y="189.615" style="fill:#FAFAFA;" width="8.874" height="10.169"/>
				<rect x="359.867" y="206.665" style="fill:#FAFAFA;" width="8.874" height="10.169"/>
				<rect x="359.867" y="223.727" style="fill:#FAFAFA;" width="8.874" height="10.169"/>
				<rect x="359.867" y="240.777" style="fill:#FAFAFA;" width="8.874" height="10.169"/>
			</g>
			<g>
				<path style="fill:#E0E0E0;" d="M196.237,391.44V227.893h-35.305v163.529L196.237,391.44z"/>
				<rect x="163.613" y="233.085" style="fill:#FAFAFA;" width="4.279" height="8.829"/>
				<rect x="172.171" y="233.085" style="fill:#FAFAFA;" width="4.279" height="8.829"/>
				<rect x="180.73" y="233.085" style="fill:#FAFAFA;" width="4.279" height="8.829"/>
				<rect x="189.289" y="233.085" style="fill:#FAFAFA;" width="4.279" height="8.829"/>
				<rect x="163.613" y="247.894" style="fill:#FAFAFA;" width="4.279" height="8.829"/>
				<rect x="172.171" y="247.894" style="fill:#FAFAFA;" width="4.279" height="8.829"/>
				<rect x="180.73" y="247.894" style="fill:#FAFAFA;" width="4.279" height="8.829"/>
				<rect x="189.289" y="247.894" style="fill:#FAFAFA;" width="4.279" height="8.829"/>
				<rect x="163.613" y="262.692" style="fill:#FAFAFA;" width="4.279" height="8.829"/>
				<rect x="172.171" y="262.692" style="fill:#FAFAFA;" width="4.279" height="8.829"/>
				<rect x="180.73" y="262.692" style="fill:#FAFAFA;" width="4.279" height="8.829"/>
				<rect x="189.289" y="262.692" style="fill:#FAFAFA;" width="4.279" height="8.829"/>
				<rect x="163.613" y="277.489" style="fill:#FAFAFA;" width="4.279" height="8.829"/>
				<rect x="172.171" y="277.489" style="fill:#FAFAFA;" width="4.279" height="8.829"/>
				<rect x="180.73" y="277.489" style="fill:#FAFAFA;" width="4.279" height="8.829"/>
				<rect x="189.289" y="277.489" style="fill:#FAFAFA;" width="4.279" height="8.829"/>
				<rect x="163.613" y="292.287" style="fill:#FAFAFA;" width="4.279" height="8.829"/>
				<rect x="172.171" y="292.287" style="fill:#FAFAFA;" width="4.279" height="8.829"/>
				<rect x="180.73" y="292.287" style="fill:#FAFAFA;" width="4.279" height="8.829"/>
				<rect x="189.289" y="292.287" style="fill:#FAFAFA;" width="4.279" height="8.829"/>
				<rect x="163.613" y="307.085" style="fill:#FAFAFA;" width="4.279" height="8.829"/>
				<rect x="172.171" y="307.085" style="fill:#FAFAFA;" width="4.279" height="8.829"/>
				<rect x="180.73" y="307.085" style="fill:#FAFAFA;" width="4.279" height="8.829"/>
				<rect x="189.289" y="307.085" style="fill:#FAFAFA;" width="4.279" height="8.829"/>
				<rect x="163.613" y="321.882" style="fill:#FAFAFA;" width="4.279" height="8.829"/>
				<rect x="172.171" y="321.882" style="fill:#FAFAFA;" width="4.279" height="8.829"/>
				<rect x="180.73" y="321.882" style="fill:#FAFAFA;" width="4.279" height="8.829"/>
				<rect x="189.289" y="321.882" style="fill:#FAFAFA;" width="4.279" height="8.829"/>
				<rect x="163.613" y="336.691" style="fill:#FAFAFA;" width="4.279" height="8.829"/>
				<rect x="172.171" y="336.691" style="fill:#FAFAFA;" width="4.279" height="8.829"/>
				<rect x="180.73" y="336.691" style="fill:#FAFAFA;" width="4.279" height="8.829"/>
				<rect x="189.289" y="336.691" style="fill:#FAFAFA;" width="4.279" height="8.829"/>
			</g>
			<g>
				<path style="fill:#E6E6E6;" d="M318.921,391.499v-182.48h-73.2V391.55C245.721,391.55,318.36,391.573,318.921,391.499z"/>
				<rect x="251.216" y="215.055" style="fill:#E0E0E0;" width="8.874" height="10.169"/>
				<rect x="268.976" y="215.055" style="fill:#E0E0E0;" width="8.874" height="10.169"/>
				<rect x="286.724" y="215.055" style="fill:#E0E0E0;" width="8.874" height="10.169"/>
				<rect x="304.483" y="215.055" style="fill:#E0E0E0;" width="8.874" height="10.169"/>
				<rect x="251.216" y="232.117" style="fill:#E0E0E0;" width="8.874" height="10.169"/>
				<rect x="268.976" y="232.117" style="fill:#E0E0E0;" width="8.874" height="10.169"/>
				<rect x="286.724" y="232.117" style="fill:#E0E0E0;" width="8.874" height="10.169"/>
				<rect x="304.483" y="232.117" style="fill:#E0E0E0;" width="8.874" height="10.169"/>
				<rect x="251.216" y="249.167" style="fill:#E0E0E0;" width="8.874" height="10.169"/>
				<rect x="268.976" y="249.167" style="fill:#E0E0E0;" width="8.874" height="10.169"/>
				<rect x="286.724" y="249.167" style="fill:#E0E0E0;" width="8.874" height="10.169"/>
				<rect x="304.483" y="249.167" style="fill:#E0E0E0;" width="8.874" height="10.169"/>
				<rect x="251.216" y="266.216" style="fill:#E0E0E0;" width="8.874" height="10.169"/>
				<rect x="268.976" y="266.216" style="fill:#E0E0E0;" width="8.874" height="10.169"/>
				<rect x="286.724" y="266.216" style="fill:#E0E0E0;" width="8.874" height="10.169"/>
				<rect x="304.483" y="266.216" style="fill:#E0E0E0;" width="8.874" height="10.169"/>
				<rect x="251.216" y="283.278" style="fill:#E0E0E0;" width="8.874" height="10.169"/>
				<rect x="268.976" y="283.278" style="fill:#E0E0E0;" width="8.874" height="10.169"/>
				<rect x="286.724" y="283.278" style="fill:#E0E0E0;" width="8.874" height="10.169"/>
				<rect x="304.483" y="283.278" style="fill:#E0E0E0;" width="8.874" height="10.169"/>
				<rect x="251.216" y="300.328" style="fill:#E0E0E0;" width="8.874" height="10.169"/>
				<rect x="268.976" y="300.328" style="fill:#E0E0E0;" width="8.874" height="10.169"/>
				<rect x="286.724" y="300.328" style="fill:#E0E0E0;" width="8.874" height="10.169"/>
				<rect x="304.483" y="300.328" style="fill:#E0E0E0;" width="8.874" height="10.169"/>
				<rect x="251.216" y="317.389" style="fill:#E0E0E0;" width="8.874" height="10.169"/>
				<rect x="268.976" y="317.389" style="fill:#E0E0E0;" width="8.874" height="10.169"/>
				<rect x="286.724" y="317.389" style="fill:#E0E0E0;" width="8.874" height="10.169"/>
				<rect x="304.483" y="317.389" style="fill:#E0E0E0;" width="8.874" height="10.169"/>
				<rect x="251.216" y="334.439" style="fill:#E0E0E0;" width="8.874" height="10.169"/>
				<rect x="268.976" y="334.439" style="fill:#E0E0E0;" width="8.874" height="10.169"/>
				<rect x="286.724" y="334.439" style="fill:#E0E0E0;" width="8.874" height="10.169"/>
				<rect x="304.483" y="334.439" style="fill:#E0E0E0;" width="8.874" height="10.169"/>
			</g>
			<g>
				<path style="fill:#E6E6E6;" d="M148.094,391.417V196.26h-30.282v195.313C127.396,391.336,148.094,391.417,148.094,391.417z"/>
				<rect x="122.294" y="199.875" style="fill:#FAFAFA;" width="8.874" height="10.169"/>
				<rect x="122.294" y="216.925" style="fill:#FAFAFA;" width="8.874" height="10.169"/>
				<rect x="122.294" y="233.986" style="fill:#FAFAFA;" width="8.874" height="10.169"/>
				<rect x="122.294" y="251.036" style="fill:#FAFAFA;" width="8.874" height="10.169"/>
				<rect x="122.294" y="268.086" style="fill:#FAFAFA;" width="8.874" height="10.169"/>
				<rect x="122.294" y="285.147" style="fill:#FAFAFA;" width="8.874" height="10.169"/>
				<rect x="122.294" y="302.197" style="fill:#FAFAFA;" width="8.874" height="10.169"/>
				<rect x="122.294" y="319.258" style="fill:#FAFAFA;" width="8.874" height="10.169"/>
				<rect x="134.164" y="199.875" style="fill:#FAFAFA;" width="8.874" height="10.169"/>
				<rect x="134.164" y="216.925" style="fill:#FAFAFA;" width="8.874" height="10.169"/>
				<rect x="134.164" y="233.986" style="fill:#FAFAFA;" width="8.874" height="10.169"/>
				<rect x="134.164" y="251.036" style="fill:#FAFAFA;" width="8.874" height="10.169"/>
				<rect x="134.164" y="268.086" style="fill:#FAFAFA;" width="8.874" height="10.169"/>
				<rect x="134.164" y="285.147" style="fill:#FAFAFA;" width="8.874" height="10.169"/>
				<rect x="134.164" y="302.197" style="fill:#FAFAFA;" width="8.874" height="10.169"/>
				<rect x="134.164" y="319.258" style="fill:#FAFAFA;" width="8.874" height="10.169"/>
			</g>
			<g>
				<rect x="384.698" y="199.74" style="fill:#E6E6E6;" width="53.447" height="191.833"/>
				<rect x="392.603" y="207.668" style="fill:#FAFAFA;" width="15.665" height="10.169"/>
				<rect x="392.603" y="224.729" style="fill:#FAFAFA;" width="15.665" height="10.169"/>
				<rect x="392.603" y="241.779" style="fill:#FAFAFA;" width="15.665" height="10.169"/>
				<rect x="392.603" y="258.84" style="fill:#FAFAFA;" width="15.665" height="10.169"/>
				<rect x="392.603" y="275.89" style="fill:#FAFAFA;" width="15.665" height="10.169"/>
				<rect x="392.603" y="292.94" style="fill:#FAFAFA;" width="15.665" height="10.169"/>
				<rect x="392.603" y="310.001" style="fill:#FAFAFA;" width="15.665" height="10.169"/>
				<rect x="392.603" y="327.051" style="fill:#FAFAFA;" width="15.665" height="10.169"/>
				<rect x="413.561" y="207.668" style="fill:#FAFAFA;" width="15.665" height="10.169"/>
				<rect x="413.561" y="224.729" style="fill:#FAFAFA;" width="15.665" height="10.169"/>
				<rect x="413.561" y="241.779" style="fill:#FAFAFA;" width="15.665" height="10.169"/>
				<rect x="413.561" y="258.84" style="fill:#FAFAFA;" width="15.665" height="10.169"/>
				<rect x="413.561" y="275.89" style="fill:#FAFAFA;" width="15.665" height="10.169"/>
				<rect x="413.561" y="292.94" style="fill:#FAFAFA;" width="15.665" height="10.169"/>
				<rect x="413.561" y="310.001" style="fill:#FAFAFA;" width="15.665" height="10.169"/>
				<rect x="413.561" y="327.051" style="fill:#FAFAFA;" width="15.665" height="10.169"/>
			</g>
			<g>
				<path style="fill:#E0E0E0;" d="M349.732,391.514V249.167h-23.311v142.336L349.732,391.514z"/>
				<rect x="328.189" y="253.671" style="fill:#FAFAFA;" width="2.827" height="7.579"/>
				<rect x="333.842" y="253.671" style="fill:#FAFAFA;" width="2.827" height="7.579"/>
				<rect x="339.484" y="253.671" style="fill:#FAFAFA;" width="2.827" height="7.579"/>
				<rect x="345.137" y="253.671" style="fill:#FAFAFA;" width="2.827" height="7.579"/>
				<rect x="328.189" y="266.385" style="fill:#FAFAFA;" width="2.827" height="7.579"/>
				<rect x="333.842" y="266.385" style="fill:#FAFAFA;" width="2.827" height="7.579"/>
				<rect x="339.484" y="266.385" style="fill:#FAFAFA;" width="2.827" height="7.579"/>
				<rect x="345.137" y="266.385" style="fill:#FAFAFA;" width="2.827" height="7.579"/>
				<rect x="328.189" y="279.1" style="fill:#FAFAFA;" width="2.827" height="7.579"/>
				<rect x="333.842" y="279.1" style="fill:#FAFAFA;" width="2.827" height="7.579"/>
				<rect x="339.484" y="279.1" style="fill:#FAFAFA;" width="2.827" height="7.579"/>
				<rect x="345.137" y="279.1" style="fill:#FAFAFA;" width="2.827" height="7.579"/>
				<rect x="328.189" y="291.814" style="fill:#FAFAFA;" width="2.827" height="7.579"/>
				<rect x="333.842" y="291.814" style="fill:#FAFAFA;" width="2.827" height="7.579"/>
				<rect x="339.484" y="291.814" style="fill:#FAFAFA;" width="2.827" height="7.579"/>
				<rect x="345.137" y="291.814" style="fill:#FAFAFA;" width="2.827" height="7.579"/>
				<rect x="328.189" y="304.539" style="fill:#FAFAFA;" width="2.827" height="7.579"/>
				<rect x="333.842" y="304.539" style="fill:#FAFAFA;" width="2.827" height="7.579"/>
				<rect x="339.484" y="304.539" style="fill:#FAFAFA;" width="2.827" height="7.579"/>
				<rect x="345.137" y="304.539" style="fill:#FAFAFA;" width="2.827" height="7.579"/>
				<rect x="328.189" y="317.254" style="fill:#FAFAFA;" width="2.827" height="7.579"/>
				<rect x="333.842" y="317.254" style="fill:#FAFAFA;" width="2.827" height="7.579"/>
				<rect x="339.484" y="317.254" style="fill:#FAFAFA;" width="2.827" height="7.579"/>
				<rect x="345.137" y="317.254" style="fill:#FAFAFA;" width="2.827" height="7.579"/>
				<rect x="328.189" y="329.968" style="fill:#FAFAFA;" width="2.827" height="7.579"/>
				<rect x="333.842" y="329.968" style="fill:#FAFAFA;" width="2.827" height="7.579"/>
				<rect x="339.484" y="329.968" style="fill:#FAFAFA;" width="2.827" height="7.579"/>
				<rect x="345.137" y="329.968" style="fill:#FAFAFA;" width="2.827" height="7.579"/>
				<rect x="328.189" y="342.682" style="fill:#FAFAFA;" width="2.827" height="7.579"/>
				<rect x="333.842" y="342.682" style="fill:#FAFAFA;" width="2.827" height="7.579"/>
				<rect x="339.484" y="342.682" style="fill:#FAFAFA;" width="2.827" height="7.579"/>
				<rect x="345.137" y="342.682" style="fill:#FAFAFA;" width="2.827" height="7.579"/>
			</g>
			<g>
				<path style="fill:#FAFAFA;" d="M120.515,391.573V270.271H58.194v121.103L120.515,391.573z"/>
				<rect x="62.912" y="274.043" style="fill:#E0E0E0;" width="7.556" height="6.363"/>
				<rect x="78.025" y="274.043" style="fill:#E0E0E0;" width="7.556" height="6.363"/>
				<rect x="93.127" y="274.043" style="fill:#E0E0E0;" width="7.556" height="6.363"/>
				<rect x="108.24" y="274.043" style="fill:#E0E0E0;" width="7.556" height="6.363"/>
				<rect x="62.912" y="284.708" style="fill:#E0E0E0;" width="7.556" height="6.363"/>
				<rect x="78.025" y="284.708" style="fill:#E0E0E0;" width="7.556" height="6.363"/>
				<rect x="93.127" y="284.708" style="fill:#E0E0E0;" width="7.556" height="6.363"/>
				<rect x="108.24" y="284.708" style="fill:#E0E0E0;" width="7.556" height="6.363"/>
				<rect x="62.912" y="295.373" style="fill:#E0E0E0;" width="7.556" height="6.363"/>
				<rect x="78.025" y="295.373" style="fill:#E0E0E0;" width="7.556" height="6.363"/>
				<rect x="93.127" y="295.373" style="fill:#E0E0E0;" width="7.556" height="6.363"/>
				<rect x="108.24" y="295.373" style="fill:#E0E0E0;" width="7.556" height="6.363"/>
				<rect x="62.912" y="306.037" style="fill:#E0E0E0;" width="7.556" height="6.363"/>
				<rect x="78.025" y="306.037" style="fill:#E0E0E0;" width="7.556" height="6.363"/>
				<rect x="93.127" y="306.037" style="fill:#E0E0E0;" width="7.556" height="6.363"/>
				<rect x="108.24" y="306.037" style="fill:#E0E0E0;" width="7.556" height="6.363"/>
				<rect x="62.912" y="316.691" style="fill:#E0E0E0;" width="7.556" height="6.363"/>
				<rect x="78.025" y="316.691" style="fill:#E0E0E0;" width="7.556" height="6.363"/>
				<rect x="93.127" y="316.691" style="fill:#E0E0E0;" width="7.556" height="6.363"/>
				<rect x="108.24" y="316.691" style="fill:#E0E0E0;" width="7.556" height="6.363"/>
				<rect x="62.912" y="327.355" style="fill:#E0E0E0;" width="7.556" height="6.363"/>
				<rect x="78.025" y="327.355" style="fill:#E0E0E0;" width="7.556" height="6.363"/>
				<rect x="93.127" y="327.355" style="fill:#E0E0E0;" width="7.556" height="6.363"/>
				<rect x="108.24" y="327.355" style="fill:#E0E0E0;" width="7.556" height="6.363"/>
				<rect x="62.912" y="338.02" style="fill:#E0E0E0;" width="7.556" height="6.363"/>
				<rect x="78.025" y="338.02" style="fill:#E0E0E0;" width="7.556" height="6.363"/>
				<rect x="93.127" y="338.02" style="fill:#E0E0E0;" width="7.556" height="6.363"/>
				<rect x="108.24" y="338.02" style="fill:#E0E0E0;" width="7.556" height="6.363"/>
			</g>
		</g>
		<g>
			<path style="fill:#E6E6E6;" d="M96.371,373.814c-1.854-1.744-5.793,5.005-5.793,5.005s4.24-14.704-0.01-14.754
				c-4.25-0.05-4.462,12.545-4.462,12.545s-1.365-25.037-6.891-23.057c-5.526,1.981,2.539,24.327,2.539,24.327
				s-7.147-15.887-9.886-12.764c-2.739,3.123,6.291,16.413,6.291,16.413s-6.595-4.262-6.168-1.224
				c0.427,3.038,14.728,10.985,14.728,10.985C91.295,385.87,98.225,375.559,96.371,373.814z"/>
			<g>
				<path style="fill:none;stroke:#E0E0E0;stroke-width:0.5;stroke-linecap:round;stroke-linejoin:round;stroke-miterlimit:10;" d="
					M86.748,391.44c0,0-2.244-10.702-3.533-17.987"/>
				
					<line style="fill:none;stroke:#E0E0E0;stroke-width:0.5;stroke-linecap:round;stroke-linejoin:round;stroke-miterlimit:10;" x1="85.27" y1="384.367" x2="80.899" y2="378.942"/>
			</g>
		</g>
		<g>
			<path style="fill:#E0E0E0;" d="M452.065,376.772c-1.353-2.157-6.87,3.378-6.87,3.378s7.821-13.154,3.721-14.277
				c-4.099-1.123-7.49,11.009-7.49,11.009s5.01-24.569-0.837-24.05c-5.847,0.519-3.695,24.178-3.695,24.178
				s-2.897-17.178-6.337-14.849c-3.44,2.329,1.936,17.471,1.936,17.471s-5.303-5.792-5.658-2.744s11.471,14.352,11.471,14.352
				C444.105,387.153,453.418,378.929,452.065,376.772z"/>
			<g>
				<path style="fill:none;stroke:#E0E0E0;stroke-width:0.5;stroke-linecap:round;stroke-linejoin:round;stroke-miterlimit:10;" d="
					M438.298,391.392c0,0,0.535-10.922,1.13-18.296"/>
				
					<line style="fill:none;stroke:#E0E0E0;stroke-width:0.5;stroke-linecap:round;stroke-linejoin:round;stroke-miterlimit:10;" x1="438.656" y1="384.175" x2="435.8" y2="377.821"/>
			</g>
		</g>
		<g>
			<g>
				<path style="fill:#E0E0E0;" d="M316.673,81.121c-1.417-1.07-3.484-1.192-5.017-0.294c-2.034-4.11-7.702-5.924-11.745-3.759
					c-1.055-4.429-5.419-7.834-9.971-7.779c-4.553,0.055-8.833,3.563-9.781,8.017c-0.151,0.708-0.25,1.483-0.757,2
					c-0.822,0.84-2.195,0.558-3.367,0.467c-3.687-0.288-7.397,2.301-8.4,5.86l50.774-0.185
					C318.855,83.729,318.09,82.191,316.673,81.121z"/>
			</g>
		</g>
		<g>
			<g>
				<path style="fill:#F0F0F0;" d="M461.732,148.838c-1.417-1.07-3.484-1.192-5.017-0.294c-2.034-4.11-7.702-5.924-11.745-3.759
					c-1.055-4.429-5.418-7.834-9.971-7.779c-4.553,0.055-8.833,3.563-9.781,8.016c-0.151,0.708-0.25,1.483-0.756,2
					c-0.822,0.84-2.195,0.558-3.367,0.467c-3.687-0.288-7.397,2.301-8.4,5.861l50.774-0.185
					C463.914,151.446,463.148,149.908,461.732,148.838z"/>
			</g>
		</g>
		<g>
			<g>
				<path style="fill:#F5F5F5;" d="M420.13,95.512c-1.183-0.894-2.909-0.995-4.189-0.246c-1.698-3.432-6.431-4.947-9.807-3.138
					c-0.881-3.698-4.524-6.541-8.326-6.495c-3.801,0.046-7.376,2.975-8.167,6.693c-0.126,0.591-0.209,1.238-0.632,1.67
					c-0.687,0.701-1.833,0.466-2.812,0.39c-3.078-0.24-6.176,1.921-7.013,4.893l42.395-0.154
					C421.952,97.69,421.313,96.406,420.13,95.512z"/>
			</g>
		</g>
		<g>
			<g>
				<path style="fill:#F5F5F5;" d="M181.304,75.894c-1.183-0.894-2.909-0.995-4.189-0.246c-1.698-3.432-6.431-4.947-9.807-3.138
					c-0.881-3.698-4.524-6.541-8.326-6.495c-3.801,0.046-7.376,2.975-8.167,6.693c-0.126,0.591-0.209,1.238-0.632,1.67
					c-0.687,0.701-1.833,0.466-2.811,0.39c-3.079-0.24-6.176,1.921-7.013,4.893l42.395-0.154
					C183.126,78.072,182.487,76.788,181.304,75.894z"/>
			</g>
		</g>
		<g>
			<g>
				<path style="fill:#F0F0F0;" d="M135.709,128.167c-2.104-1.59-5.174-1.77-7.45-0.437c-3.02-6.104-11.438-8.798-17.441-5.582
					c-1.566-6.577-8.046-11.633-14.807-11.551c-6.761,0.081-13.118,5.291-14.525,11.904c-0.224,1.051-0.372,2.202-1.123,2.97
					c-1.221,1.247-3.26,0.829-5,0.693c-5.475-0.427-10.984,3.417-12.473,8.703l75.4-0.274
					C138.95,132.04,137.813,129.756,135.709,128.167z"/>
			</g>
		</g>
	</g>
	<g>
		<g>
			<g>
				<g>
					<g>
						<path style="fill:#E0E0E0;" d="M443.92,330.198H263.174c-3.232,0-5.862-2.63-5.862-5.862V61.062
							c0-3.232,2.63-5.862,5.862-5.862H443.92c3.232,0,5.862,2.629,5.862,5.862v263.273
							C449.783,327.568,447.153,330.198,443.92,330.198z M263.174,55.45c-3.095,0-5.612,2.518-5.612,5.612v263.273
							c0,3.095,2.518,5.612,5.612,5.612H443.92c3.095,0,5.612-2.518,5.612-5.612V61.062c0-3.094-2.518-5.612-5.612-5.612H263.174z"
							/>
					</g>
				</g>
				<g>
					<g>
						<path style="fill:#E0E0E0;" d="M235.493,330.198H54.746c-3.232,0-5.862-2.63-5.862-5.862V61.062
							c0-3.232,2.629-5.862,5.862-5.862h180.747c3.232,0,5.862,2.629,5.862,5.862v263.273
							C241.355,327.568,238.725,330.198,235.493,330.198z M54.746,55.45c-3.094,0-5.612,2.518-5.612,5.612v263.273
							c0,3.095,2.518,5.612,5.612,5.612h180.747c3.095,0,5.612-2.518,5.612-5.612V61.062c0-3.094-2.518-5.612-5.612-5.612H54.746z"
							/>
					</g>
				</g>
			</g>
			<g>
				<g>
					<rect x="0" y="391.267" style="fill:#E0E0E0;" width="500" height="0.25"/>
				</g>
			</g>
		</g>
		<rect x="51.672" y="405.531" style="fill:#E0E0E0;" width="16.06" height="0.25"/>
		<rect x="170.352" y="402.821" style="fill:#E0E0E0;" width="53.53" height="0.25"/>
		<rect x="68.732" y="414.821" style="fill:#E0E0E0;" width="36.25" height="0.25"/>
		<rect x="378.352" y="402.691" style="fill:#E0E0E0;" width="43.19" height="0.25"/>
		<rect x="430.452" y="402.691" style="fill:#E0E0E0;" width="6.33" height="0.25"/>
		<rect x="316.212" y="408.921" style="fill:#E0E0E0;" width="53.89" height="0.25"/>
	</g>
</g>
<g id="Background_simple" style="display:none;">
	<g style="display:inline;">
		<path style="fill:#407BFF;" d="M185.766,91.826c-21.564,2.847-42.358,8.907-60.801,18.413
			c-21.737,11.204-43.946,28.659-37.386,51.49c12.11,42.149,70.206,42.917,58.607,71.257c-13.139,32.101-4.328,69.757,54.63,80.228
			c111.982,19.889,247.351-96.484,209.331-160.43C386.477,112.975,300.266,76.712,185.766,91.826z"/>
		<path style="opacity:0.9;fill:#FFFFFF;" d="M185.766,91.826c-21.564,2.847-42.358,8.907-60.801,18.413
			c-21.737,11.204-43.946,28.659-37.386,51.49c12.11,42.149,70.206,42.917,58.607,71.257c-13.139,32.101-4.328,69.757,54.63,80.228
			c111.982,19.889,247.351-96.484,209.331-160.43C386.477,112.975,300.266,76.712,185.766,91.826z"/>
	</g>
</g>
<g id="Shadow">
	<g>
		<g>
			<path style="fill:#F5F5F5;" d="M458.875,445.861c0,3.387-93.517,6.132-208.875,6.132s-208.875-2.745-208.875-6.132
				c0-3.387,93.516-6.132,208.875-6.132S458.875,442.474,458.875,445.861z"/>
		</g>
	</g>
</g>
<g id="Plants">
	<g>
		<g>
			<path style="fill:#407BFF;" d="M148.685,422.644c-0.576-0.968-1.86-2.158-2.76-2.836c-0.9-0.678-2.133-1.016-3.176-0.589
				c-1.331,0.545-1.944,2.177-1.759,3.603c0.186,1.426,0.866,3.228,1.677,4.416c3.461,5.068,6.665,9.706,12.007,13.477
				C154.674,434.42,151.88,428.012,148.685,422.644z"/>
		</g>
		<g>
			<path style="fill:#407BFF;" d="M166.308,423.516c-1.195-0.655-3.418,0.273-4.509,1.09c-2.162,1.62-3.479,3.317-4.797,5.676
				c-1.673,2.995-1.868,7.201-2.08,9.871c4.23-3.434,8.539-6.955,11.436-11.57c0.506-0.805,0.975-1.671,1.066-2.617
				C167.514,425.02,167.141,423.973,166.308,423.516z"/>
		</g>
		<path style="fill:none;stroke:#263238;stroke-width:0.5;stroke-linecap:round;stroke-linejoin:round;stroke-miterlimit:10;" d="
			M150,430.017c2.5,4.03,4.304,8.492,5.307,13.127"/>
		<path style="fill:none;stroke:#263238;stroke-width:0.5;stroke-linecap:round;stroke-linejoin:round;stroke-miterlimit:10;" d="
			M159.629,432.067c-2.102,2.52-3.761,5.408-4.88,8.493"/>
	</g>
</g>
<g id="Speech_Bubble">
	<g>
		<g>
			<g>
				<path style="fill:#407BFF;" d="M407.043,204.115c4.993-8.592,2.075-19.605-6.517-24.598c-8.592-4.993-19.605-2.075-24.598,6.518
					c-3.854,6.633-2.978,14.698,1.569,20.333l-0.877,5.333l5.576-1.231c0.086,0.052,0.163,0.112,0.25,0.163
					C391.037,215.626,402.05,212.708,407.043,204.115z"/>
			</g>
			<path style="fill:none;stroke:#407BFF;stroke-width:0.5;stroke-linecap:round;stroke-linejoin:round;stroke-miterlimit:10;" d="
				M404.667,179.486c4.691,3.495,7.423,9.464,7.002,15.299"/>
			<path style="fill:none;stroke:#407BFF;stroke-width:0.5;stroke-linecap:round;stroke-linejoin:round;stroke-miterlimit:10;" d="
				M411.382,197.454c0.002,0.892-0.183,1.785-0.539,2.603"/>
		</g>
		<g style="opacity:0.4;">
			<g>
				<path style="fill:#FFFFFF;" d="M407.043,204.115c4.993-8.592,2.075-19.605-6.517-24.598c-8.592-4.993-19.605-2.075-24.598,6.518
					c-3.854,6.633-2.978,14.698,1.569,20.333l-0.877,5.333l5.576-1.231c0.086,0.052,0.163,0.112,0.25,0.163
					C391.037,215.626,402.05,212.708,407.043,204.115z"/>
			</g>
		</g>
		<g>
			<path style="fill:#FFFFFF;" d="M389.793,203.85c-0.454-0.437-0.681-0.969-0.681-1.596c0-0.627,0.223-1.151,0.668-1.571
				c0.445-0.421,1.014-0.631,1.707-0.631c0.693,0,1.262,0.21,1.708,0.631c0.445,0.421,0.668,0.945,0.668,1.571
				c0,0.627-0.227,1.159-0.68,1.596c-0.454,0.437-1.019,0.656-1.695,0.656C390.812,204.506,390.247,204.287,389.793,203.85z
				 M389.187,186.986h4.603l-0.767,11.309h-3.069L389.187,186.986z"/>
		</g>
	</g>
</g>
<g id="Characters">
	<g>
		<g>
			<g>
				<path style="fill:#263238;" d="M226.329,168.86c-0.91-3.26-2.833-6.229-5.435-8.394c-3.409-2.836-7.773-4.202-11.647-6.361
					c-3.874-2.158-7.556-5.676-7.71-10.108c-0.052-1.513,0.316-3.005,0.495-4.508c0.587-4.922-0.959-10.061-4.164-13.841
					c-1.917-2.261-4.45-4.147-5.476-6.929l-11.627-10.549c-5.542-1.422-11.784,0.315-15.794,4.396
					c-3.582,3.645-5.263,8.731-6.362,13.721c-3.141,14.262-2.297,29.705,4.271,42.749c0.488,0.969,1.027,1.948,1.865,2.636
					c0.92,0.755,2.115,1.085,3.29,1.275c4.717,0.763,9.505-0.43,14.277-0.66c11.624-0.562,22.737,4.566,34.287,5.997
					c3.138,0.389,6.805,0.3,8.823-2.135C227.049,174.187,227.014,171.314,226.329,168.86z"/>
			</g>
			<g>
				<path style="fill:#EBB373;" d="M201.188,166.988l23.751,49.115l28.343,30.018l-6.278,5.404c0,0-27.243-18.722-34.839-29.085
					c-7.096-9.681-20.356-41.104-20.356-41.104L201.188,166.988z"/>
				<g>
					<g>
						<path style="fill:#EBB373;" d="M261.658,248.829c1.387-0.653,3.01-1.336,4.052-2.465c0.351-0.38,0.822-1.218,0.698-1.725
							c-0.125-0.508-0.699-0.796-1.216-0.776c-0.517,0.02-1.454,0.451-1.953,0.587c-4.122,1.126-6.393,2.072-9.957,1.672
							l-6.278,5.404c2.611,3.462,4.566,7.762,8.51,9.499c0.985,0.434,2.215,0.818,3.047,0.142c0.25-0.203,0.442-0.491,0.741-0.61
							c0.32-0.127,0.682-0.026,1.027-0.045c0.997-0.055,1.652-1.068,1.973-2.022c1.295-0.212,2.353-1.42,2.405-2.747
							c0.809,0.072,1.491-0.723,1.565-1.539c0.073-0.816-0.307-1.607-0.759-2.292C264.652,250.607,263.002,249.613,261.658,248.829z
							"/>
					</g>
					<g style="opacity:0.3;">
						<path d="M264.228,250.598c-2.592-1.667-6.001-1.53-8.356,0.457c-0.92,0.776-1.734,1.742-2.441,2.833
							c-0.341,0.526-0.642,1.161-0.457,1.76c0.185,0.6,0.791,0.954,1.363,1.213c0.789,0.358,1.346,0.621,2.185,0.836
							c0.434,0.111,0.143-1.818,0.579-1.92c0.548-0.128,1.714,0.433,2.099,0.023c1.379-1.466,4.176-3.374,5.054-5.184
							L264.228,250.598z"/>
					</g>
					<path style="fill:#EBB373;" d="M254.633,259.583c-0.55-0.252-1.118-0.517-1.513-0.975c-0.395-0.458-0.567-1.167-0.237-1.674
						c0.233-0.359,0.671-0.546,1.098-0.566c0.427-0.021,0.848,0.104,1.247,0.256c0.573,0.218,1.124,0.497,1.639,0.829
						c-0.441-0.298-0.888-0.602-1.229-1.011c-0.34-0.409-0.564-0.946-0.482-1.472c0.036-0.231,0.136-0.458,0.312-0.612
						c0.341-0.298,0.858-0.246,1.296-0.131c0.937,0.246,1.817,0.709,2.552,1.341c-0.314-0.436-0.733-0.784-1.115-1.161
						c-0.382-0.378-0.741-0.809-0.882-1.327c-0.141-0.519-0.012-1.142,0.427-1.452c0.432-0.305,0.991-0.376,1.498-0.224
						c0.784,0.236,1.527,0.605,2.189,1.088c-0.613-0.454-1.144-1.018-1.56-1.657c-0.112-0.172-0.219-0.359-0.223-0.565
						c-0.008-0.399,0.37-0.7,0.746-0.834c0.742-0.266,1.58-0.14,2.303,0.176c0.723,0.316,2.091,1.223,2.995,2.59
						c0,0-1.623,1.589-1.76,1.68c-0.137,0.091-7.703,5.378-7.703,5.378L254.633,259.583z"/>
				</g>
			</g>
			<g>
				<path style="fill:#407BFF;" d="M95.677,317.755c8.5-1.945,17.34-0.983,25.942,0.375c16.334,2.577,32.606,6.603,47.541,14.059
					c18.089,2.54,43.263,2.594,47.98,9.826c-46.704,20.223-101.93-1.388-123.088-15.051c-1.742-1.125-3.659-2.722-3.543-4.878
					C90.644,319.585,93.362,318.285,95.677,317.755z"/>
			</g>
			<g style="opacity:0.2;">
				<path d="M95.677,317.755c8.5-1.945,17.34-0.983,25.942,0.375c16.334,2.577,32.606,6.603,47.541,14.059
					c18.089,2.54,43.263,2.594,47.98,9.826c-46.704,20.223-101.93-1.388-123.088-15.051c-1.742-1.125-3.659-2.722-3.543-4.878
					C90.644,319.585,93.362,318.285,95.677,317.755z"/>
			</g>
			<g>
				<path style="fill:#EBB373;" d="M118.702,357.376c2.815-5.463,8.005-10.997,9.786-15.515c1.568-3.917,1.17-6.89,3.663-16.154
					c2.981-11.218,7.878-25.919,14.896-36.092c0,0-6.28-16.338,6.158-30.325l8.195-8.818l33.707,7.089l-45.109,88.404
					l-43.495,73.201l-9.187-3.279C101.697,399.216,110.953,373.258,118.702,357.376z"/>
				<path style="opacity:0.2;" d="M133.672,319.125l22.34,11.306l0.21,3.419l-1.539,2.937l-1.701,3.333c0,0-4.664-2.781-9.529-5.488
					c-4.865-2.707-11.925-6.499-11.925-6.499L133.672,319.125z"/>
				<g>
					<path style="fill:#263238;" d="M104.956,444.045c-0.617-1.478-1.5-2.908-2.605-4.221l0,0c0,0-1.847-5.923,2.73-16.429
						l-4.52-4.859c-1.58-1.634-3.863-2.437-5.739-2.018c-0.262,0.061-0.504,0.157-0.72,0.287c-0.946,0.776-1.823,1.62-2.626,2.526
						c-2.662,3.131-5.072,6.46-7.217,9.968l0.979,0.728l4.845-6.03c1.566-2.107,2.031,2.04,1.012,4.773
						c-1.019,2.733-1.495,6.199,4.597,10.728C102.684,444.731,105.812,446.691,104.956,444.045z"/>
					<path style="fill:#EBB373;" d="M107.886,416.147c0,0-3.274,8.269-4.716,14.233c-0.943,2.924-1.2,6.145-0.757,9.489
						c0,0-5.052-2.714-5.367-6.512c-0.314-3.797,2.707-13.833-2.259-16.794c0.783-0.329,1.633-0.556,2.531-0.677l1.243-3.021
						C101.329,413.825,107.886,416.147,107.886,416.147z"/>
				</g>
			</g>
			<path style="fill:#EBB373;" d="M153.965,186.88l-8.884-18.549c4.004-5.975,23.814-10.567,23.814-10.567l13.052,0.714
				c0,0,5.016,1.119,9.311,2.52c5.734,1.87,8.834,3.374,10.201,6.555c0,0,2.744,7.088,0.954,21.574
				c-0.494,4.002-1.838,27.182,1.815,33.846l-0.068,1.836c-23.847,18.572-44.02,15.46-44.02,15.46
				c1.072-3.279,0.967-14.092,1.452-17.297c-0.35-4.089-0.202-7.2-1.934-14.359C159.323,207.232,154.546,188.223,153.965,186.88z"/>
			<g>
				<g>
					<g>
						<g>
							<g>
								<path style="fill:#EBB373;" d="M165.662,159.834c0,0,4.226,2.079,9.437,6.57c1.086,0.936,2.281,1.745,3.546,2.417
									c3.415,1.814,6.528,2.851,7.37,1.205c0.187-0.362,0.332-0.754,0.438-1.165c0.716-2.757,0.422-6.633-1.806-8.406
									c-2.512-2-3.724-3.711-3.271-6.418c0.238-1.535,0.793-3.119,1.443-4.658l-2.902-1.742L169.577,137.2
									C170.76,143.599,171.109,156.051,165.662,159.834z"/>
							</g>
							<path style="opacity:0.2;" d="M181.293,154.631c-2.844-1.689-5.965-4.617-5.59-7.963c0.167-1.409,0.47-2.744,0.808-3.6
								l5.777,7.648C181.813,151.95,181.64,152.765,181.293,154.631z"/>
							<path style="fill:#EBB373;" d="M167.574,125.434c0.973,10.625,1.161,15.131,6.644,20.702c8.247,8.38,20.935,5.561,23.12-4.97
								c1.966-9.479,0.044-25.262-10.387-29.728C176.674,107.038,166.601,114.809,167.574,125.434z"/>
							<path style="fill:#263238;" d="M181.365,128.269c-0.377,1.06-0.163,2.145,0.479,2.423c0.641,0.278,1.467-0.357,1.844-1.417
								c0.377-1.06,0.163-2.145-0.479-2.423C182.567,126.574,181.742,127.208,181.365,128.269z"/>
							<path style="fill:#263238;" d="M191.924,128.686c-0.293,1.051,0.003,2.091,0.659,2.324c0.657,0.233,1.426-0.43,1.719-1.481
								c0.292-1.05-0.003-2.091-0.659-2.324C192.986,126.972,192.216,127.635,191.924,128.686z"/>
							<path style="fill:#263238;" d="M179.119,124.977c0.135,0.015,0.273-0.024,0.378-0.121c1.637-1.516,3.48-0.984,3.501-0.977
								c0.273,0.079,0.55-0.075,0.612-0.354c0.062-0.278-0.112-0.571-0.388-0.655c-0.096-0.029-2.409-0.699-4.441,1.183
								c-0.202,0.188-0.206,0.52-0.009,0.742C178.867,124.901,178.992,124.963,179.119,124.977z"/>
							<path style="fill:#263238;" d="M195.338,124.653c0.107-0.036,0.196-0.116,0.243-0.232c0.097-0.241-0.021-0.546-0.264-0.682
								c-2.428-1.365-4.229-0.327-4.305-0.282c-0.214,0.127-0.265,0.429-0.115,0.674c0.15,0.245,0.444,0.341,0.658,0.215
								c0.07-0.042,1.479-0.823,3.41,0.263C195.092,124.68,195.225,124.691,195.338,124.653z"/>
							<path style="fill:#E4873E;" d="M188.964,128.343c0,0,1.662,3.977,3.537,6.456c0.328,0.433,0.125,1.066-0.385,1.253
								c-1.312,0.483-2.848,0.046-2.848,0.046L188.964,128.343z"/>
						</g>
						<path style="fill:#263238;" d="M182.821,126.743l2.475,0.389C185.296,127.132,183.373,128.311,182.821,126.743z"/>
						<path style="fill:#263238;" d="M193.396,127.15l2.496,0.221C195.892,127.371,194.054,128.677,193.396,127.15z"/>
						<path style="fill:#263238;" d="M171.262,129.104c0,0,5.481-8.25,5.198-14.931c0,0,10.491-2.735,18.858,8.442
							c1.333,1.78,2.128,4.75,3.321,7.31c0,0,2.003-20.216-15.937-21.874c-17.911-1.655-21.431,23.526-12.693,31.999
							C170.009,140.05,167.868,134.266,171.262,129.104z"/>
						<path style="fill:#EBB373;" d="M164.359,134.093c1.255,2.179,3.294,3.547,5.164,4.016c2.812,0.705,4.265-3.816,3.305-6.634
							c-0.864-2.536-3.628-4.215-6.365-3.662C163.767,128.358,162.924,131.602,164.359,134.093z"/>
					</g>
					
						<path style="opacity:0.2;fill:none;stroke:#000000;stroke-width:0.5;stroke-linecap:round;stroke-linejoin:round;stroke-miterlimit:10;" d="
						M170.303,133.527c-0.067-1.007-0.547-1.979-1.305-2.644c-0.758-0.665-1.785-1.015-2.791-0.951"/>
					
						<path style="fill:none;stroke:#263238;stroke-width:0.5;stroke-linecap:round;stroke-linejoin:round;stroke-miterlimit:10;" d="
						M182.607,137.059c0,0,1.029,2.802,4.181,2.152"/>
				</g>
			</g>
			<g>
				<path style="fill:#EBB373;" d="M206.074,253.005l3.733,87.138l-2.989,84.449l-10.507,2.698
					c-4.646-16.691-8.427-49.486-9.509-66.584c-0.25-5.867,1.643-12.629,0.982-17.249c-0.572-4.063-2.465-6.63-4.948-15.841
					c-3.001-11.147-6.037-26.064-4.822-37.607c0,0-14.111-12.672-9.931-29.496L206.074,253.005z"/>
				<path style="opacity:0.2;" d="M209.806,340.143c0,0-4.097-3.897-11.631-2.76c-7.534,1.137-11.105,3.033-11.105,3.033
					l-2.041-5.688l17.268-4.899l7.508,3.716V340.143z"/>
				<g>
					<path style="fill:#263238;" d="M220.039,444.454c-1.377-0.818-2.939-1.439-4.609-1.833l0,0c0,0-5.016-3.652-7.611-14.814
						l-6.526-1.203c-2.243-0.368-4.554,0.349-5.81,1.804c-0.174,0.205-0.311,0.427-0.407,0.66c-0.296,1.188-0.497,2.388-0.6,3.594
						c-0.268,4.101-0.216,8.21,0.155,12.306h1.22l0.291-7.73c0-2.626,2.847,0.425,3.66,3.227c0.813,2.802,2.498,5.867,10.09,5.867
						C218.625,446.361,222.305,446.067,220.039,444.454z"/>
					<path style="fill:#EBB373;" d="M206.58,423.802c0,0,1.472,5.104,3.873,10.751c0.988,2.909,2.704,5.648,5.055,8.067
						c0,0-5.674,0.836-8.192-2.024c-2.518-2.86-6.081-12.716-11.833-12.13c0.432-0.731,0.978-1.421,1.627-2.053
						C198.039,425.372,206.58,423.802,206.58,423.802z"/>
				</g>
			</g>
			<g>
				<path style="fill:#407BFF;" d="M152.717,188.062l-7.362-20.559c5.452-5.532,19.666-8.73,19.666-8.73l5.814,5.814
					c5.482,5.482,14.582,4.7,19.048-1.638l1.375-1.951c5.734,1.87,7.756,2.76,12.334,6.671c0,0,0.61,6.971-1.18,21.457
					c-0.494,4.002-1.838,27.182,1.815,33.846l-0.068,1.836c-23.847,18.572-44.02,15.46-44.02,15.46
					c1.072-3.279,0.834-14.655,1.319-17.86c-0.35-4.089-0.069-6.636-1.801-13.796C159.323,207.232,153.298,189.405,152.717,188.062z
					"/>
				<polygon style="fill:#407BFF;" points="203.593,167.669 190.837,172.977 201.459,200.577 218.633,185.794 				"/>
				<path style="opacity:0.3;" d="M201.797,200.286c0,0,1.762-8.51,0.947-13.52c-0.816-5.01-6.875-12.118-6.875-12.118
					s6.113,4.153,8.359,10.836c1.415,4.212,0.139,12.59,0.139,12.59L201.797,200.286z"/>
			</g>
			<path style="fill:#263238;" d="M212.966,252.697c4.885,24.557,4.935,68.024,4.174,89.318c0,0-10.662-9.438-27.742-3.108
				c-17.081,6.331-24.37,6.446-32.964,3.683c-8.595-2.762-15.34-16.574-40.144-21.409c-24.805-4.834-25.751,0.636-25.751,0.636
				s-2.971-6.276,9.432-10.649c12.402-4.374,27.259-19.4,34.439-28.953c7.18-9.553,23.759-40.719,27.325-48.068
				c3.76-7.749,2.746-14.706,2.746-14.706l38.56-2.969C203.039,216.473,209.062,233.069,212.966,252.697z"/>
			<g>
				<path style="fill:#EBB373;" d="M148.3,166.665c0,0-3.39,2.112-5.774,9.818c-1.644,5.313,1.225,43.51,2.83,48.232
					c3.225,9.489,39.707,21.872,39.707,21.872l5.397-7.399l-29.275-21.147c0.435,0.24-3.662-30.828-3.662-30.828L148.3,166.665z"/>
				<path style="fill:#407BFF;" d="M140.726,182.302l-1.164,16.813h22.546l-0.649-24.467l-11.638-9.159
					C149.822,165.489,141.597,164.907,140.726,182.302z"/>
			</g>
			<path style="fill:#407BFF;" d="M170.932,138.673c0,1.322-1.072,2.393-2.393,2.393c-1.322,0-2.393-1.072-2.393-2.393
				c0-1.322,1.072-2.393,2.393-2.393C169.861,136.28,170.932,137.352,170.932,138.673z"/>
			<polygon style="opacity:0.3;" points="159.063,199.115 161.451,199.226 161.07,181.153 165.088,203.055 159.691,204.13 			"/>
			<g style="opacity:0.2;">
				<path d="M161.564,336.153c5.262-5.383,7.543-12.924,9.646-20.152c2.822-9.7,5.645-19.402,8.178-29.182
					c1.483,7.524,2.567,15.146,2.747,22.812c0.116,4.912-0.171,9.967-2.17,14.456C177.966,328.576,166.438,335.529,161.564,336.153"
					/>
			</g>
		</g>
		<g id="freepik--Character--inject-255">
			<path style="fill:#407BFF;" d="M380.593,378.834v-41.033c0-12.243,3.07-29.714-10.797-35.806
				c-4.243-1.861-9.055-1.624-13.654-1.565c-0.193-2.757-2.486-4.896-5.251-4.895h-49.01c-2.773,0-5.069,2.152-5.251,4.919h-12.35
				l-2.24-21.394c-0.652-6.175-0.877-12.575-2.015-18.691c-1.725-8.689-9.3-14.983-18.158-15.088h-0.391
				c-0.556-0.597-1.342-0.925-2.157-0.901h-20.967c-3.911,0-3.923,6.08,0,6.08h20.967c0.742,0.023,1.462-0.25,2.003-0.758
				c5.393,0.415,10.312,1.944,13.227,7.645c1.351,2.655,1.529,5.44,1.825,8.297l1.292,11.876l4.374,41.78
				c-25.34,4.67-44.743,29.631-44.743,59.795c0,33.4,23.906,60.578,53.336,60.578c28.778,0,52.281-26.075,53.265-58.456h21.844
				c3.22-0.178,6.45-0.059,9.648,0.356c0.344,0.059,0.687,0.13,1.019,0.213v25.803c-2.398-1.687-5.257-2.598-8.19-2.607
				c-8.605,0-15.598,7.775-15.598,17.352c0,9.577,6.993,17.34,15.598,17.34c8.605,0,15.598-7.775,15.598-17.34
				c0.018-3.72-1.085-7.358-3.165-10.442c0-0.166,0-0.332,0-0.51v-32.594L380.593,378.834z M368.137,432.418
				c-4.575,0-8.297-4.504-8.297-10.039c0-5.535,3.722-10.051,8.297-10.051c3.103,0.131,5.862,2.016,7.111,4.859
				c-1.102,2.75-3.307,4.741-7.68,4.966c-2.726,0.13-2.738,4.397,0,4.255c3.32-0.063,6.491-1.389,8.866-3.71
				C376.279,428.045,372.629,432.418,368.137,432.418z M290.551,432.418c-25.364,0-45.999-23.894-45.999-53.276
				c0-26.301,16.593-48.204,38.212-52.506c0.107,1.067,0.225,2.133,0.332,3.2c-20.647,4.054-36.399,24.606-36.399,49.306
				c0,27.592,19.675,50.041,43.854,50.041c23.563,0,42.835-21.334,43.854-47.919h2.145
				C335.554,409.662,315.31,432.418,290.551,432.418z M334.405,377.008c-0.984-26.609-20.256-47.919-43.854-47.919
				c-1.09,0-2.181,0.059-3.259,0.154l-0.332-3.212c1.185-0.107,2.37-0.178,3.556-0.178c24.76,0,45.039,22.757,45.964,51.155H334.405
				z M285.549,352.877c0.604,5.831,0.948,11.769,1.849,17.565c1.884,12.149,13.998,10.821,23.124,10.821h20.599
				c-0.972,24.89-18.786,44.672-40.571,44.672c-22.389,0-40.606-20.991-40.606-46.793c0-23.006,14.484-42.183,33.495-46.07
				c0.687,6.606,1.379,13.207,2.074,19.805H285.549z M322.576,377.008h-16.7c-2.75,0-6.199,0.462-8.866-0.45
				c-7.254-2.477-6.329-14.934-6.969-21.038c-0.79-7.68-1.58-15.365-2.371-23.053c0.96-0.071,1.932-0.13,2.916-0.13
				c21.785,0,39.599,19.853,40.571,44.672H322.576z M371.384,377.008c-3.117-0.059-6.246,0-9.363,0h-18.205
				c-0.984-32.428-24.487-58.456-53.265-58.456c-1.458,0-2.916,0.083-4.35,0.213c-0.498-4.686-0.992-9.371-1.482-14.057h13.607
				c0.97,0.891,2.239,1.386,3.556,1.387h49.01c1.319,0,2.59-0.499,3.556-1.399h6.91c8.297,0,14.733,5.571,14.97,14.14
				c0.119,4.042,0,8.107,0,12.149v46.568c-1.655-0.336-3.337-0.518-5.025-0.545H371.384z"/>
			<path style="opacity:0.4;enable-background:new    ;" d="M380.593,378.834v-41.033c0-12.243,3.07-29.714-10.797-35.806
				c-4.243-1.861-9.055-1.624-13.654-1.565c-0.193-2.757-2.486-4.896-5.251-4.895h-49.01c-2.773,0-5.069,2.152-5.251,4.919h-12.35
				l-2.24-21.394c-0.652-6.175-0.877-12.575-2.015-18.691c-1.725-8.689-9.3-14.983-18.158-15.088h-0.391
				c-0.556-0.597-1.342-0.925-2.157-0.901h-20.967c-3.911,0-3.923,6.08,0,6.08h20.967c0.742,0.023,1.462-0.25,2.003-0.758
				c5.393,0.415,10.312,1.944,13.227,7.645c1.351,2.655,1.529,5.44,1.825,8.297l1.292,11.876l4.374,41.78
				c-25.34,4.67-44.743,29.631-44.743,59.795c0,33.4,23.906,60.578,53.336,60.578c28.778,0,52.281-26.075,53.265-58.456h21.844
				c3.22-0.178,6.45-0.059,9.648,0.356c0.344,0.059,0.687,0.13,1.019,0.213v25.803c-2.398-1.687-5.257-2.598-8.19-2.607
				c-8.605,0-15.598,7.775-15.598,17.352c0,9.577,6.993,17.34,15.598,17.34c8.605,0,15.598-7.775,15.598-17.34
				c0.018-3.72-1.085-7.358-3.165-10.442c0-0.166,0-0.332,0-0.51v-32.594L380.593,378.834z M368.137,432.418
				c-4.575,0-8.297-4.504-8.297-10.039c0-5.535,3.722-10.051,8.297-10.051c3.103,0.131,5.862,2.016,7.111,4.859
				c-1.102,2.75-3.307,4.741-7.68,4.966c-2.726,0.13-2.738,4.397,0,4.255c3.32-0.063,6.491-1.389,8.866-3.71
				C376.279,428.045,372.629,432.418,368.137,432.418z M290.551,432.418c-25.364,0-45.999-23.894-45.999-53.276
				c0-26.301,16.593-48.204,38.212-52.506c0.107,1.067,0.225,2.133,0.332,3.2c-20.647,4.054-36.399,24.606-36.399,49.306
				c0,27.592,19.675,50.041,43.854,50.041c23.563,0,42.835-21.334,43.854-47.919h2.145
				C335.554,409.662,315.31,432.418,290.551,432.418z M334.405,377.008c-0.984-26.609-20.256-47.919-43.854-47.919
				c-1.09,0-2.181,0.059-3.259,0.154l-0.332-3.212c1.185-0.107,2.37-0.178,3.556-0.178c24.76,0,45.039,22.757,45.964,51.155H334.405
				z M285.549,352.877c0.604,5.831,0.948,11.769,1.849,17.565c1.884,12.149,13.998,10.821,23.124,10.821h20.599
				c-0.972,24.89-18.786,44.672-40.571,44.672c-22.389,0-40.606-20.991-40.606-46.793c0-23.006,14.484-42.183,33.495-46.07
				c0.687,6.606,1.379,13.207,2.074,19.805H285.549z M322.576,377.008h-16.7c-2.75,0-6.199,0.462-8.866-0.45
				c-7.254-2.477-6.329-14.934-6.969-21.038c-0.79-7.68-1.58-15.365-2.371-23.053c0.96-0.071,1.932-0.13,2.916-0.13
				c21.785,0,39.599,19.853,40.571,44.672H322.576z M371.384,377.008c-3.117-0.059-6.246,0-9.363,0h-18.205
				c-0.984-32.428-24.487-58.456-53.265-58.456c-1.458,0-2.916,0.083-4.35,0.213c-0.498-4.686-0.992-9.371-1.482-14.057h13.607
				c0.97,0.891,2.239,1.386,3.556,1.387h49.01c1.319,0,2.59-0.499,3.556-1.399h6.91c8.297,0,14.733,5.571,14.97,14.14
				c0.119,4.042,0,8.107,0,12.149v46.568c-1.655-0.336-3.337-0.518-5.025-0.545H371.384z"/>
			<path style="fill:#407BFF;" d="M236.507,349.833h142.952c2.422,0,4.385,1.964,4.385,4.385v1.778c0,2.422-1.963,4.385-4.385,4.385
				H236.507c-2.422,0-4.385-1.963-4.385-4.385v-1.778C232.121,351.796,234.084,349.833,236.507,349.833z"/>
			<polygon style="fill:#407BFF;" points="231.363,306.465 284.805,306.465 281.249,271.453 227.807,271.453 			"/>
			<polygon style="opacity:0.4;enable-background:new    ;" points="231.363,306.465 284.805,306.465 281.249,271.453 
				227.807,271.453 			"/>
			<g>
				<g>
					<path style="fill:#407BFF;" d="M404.503,413.726c-0.088-1.486-0.362-2.696-1.95-2.557l-2.25,0.198
						c-0.843,0.122-1.364,0.772-1.972,1.341c-4.598,4.298-7.362,0.01-9.346,0.3c-2.55,0.367,0.272,8.28,0.213,8.725l-1.415,9.862
						c-0.128,0.825,0.61,2.459,1.489,2.562c0.156,0.018,0.315,0.015,0.471-0.01c4.527-0.656,6.668-0.967,12.303-1.784l17.231-2.498
						c4.697-0.681,3.918-6.439,1.924-6.568c-8.961-0.533-12.806-2.881-15.974-4.547
						C405.226,418.751,404.638,416.011,404.503,413.726z"/>
					<path style="opacity:0.4;fill:#FFFFFF;" d="M419.276,429.866l-17.231,2.498c-5.634,0.817-7.776,1.127-12.303,1.784
						c-0.156,0.025-0.315,0.028-0.471,0.01c-0.597-0.07-1.121-0.845-1.361-1.595l-0.092-0.722l34.863-5.055
						C422.411,428.192,421.416,429.556,419.276,429.866z"/>
					<g>
						<g>
							<path style="fill:#263238;" d="M409.764,421.043c-0.68,0.837-1.201,1.78-1.536,2.807c-0.063,0.192,0.073,0.409,0.262,0.461
								c0.203,0.056,0.398-0.069,0.461-0.262c0.29-0.888,0.753-1.75,1.343-2.476c0.128-0.157,0.154-0.377,0-0.53
								C410.163,420.911,409.893,420.885,409.764,421.043L409.764,421.043z"/>
						</g>
					</g>
					<g>
						<g>
							<path style="fill:#263238;" d="M406.81,419.789c-0.623,0.796-1.114,1.669-1.464,2.618c-0.068,0.184,0.076,0.419,0.262,0.461
								c0.212,0.048,0.388-0.064,0.461-0.262c0.291-0.79,0.752-1.623,1.272-2.287c0.125-0.159,0.155-0.375,0-0.53
								C407.21,419.659,406.935,419.629,406.81,419.789L406.81,419.789z"/>
						</g>
					</g>
					<g>
						<g>
							<path style="fill:#263238;" d="M404.749,418.576c-0.682,0.513-1.188,1.209-1.443,2.027c-0.058,0.187,0.069,0.417,0.262,0.461
								c0.204,0.046,0.399-0.061,0.461-0.262c0.027-0.087,0.057-0.173,0.09-0.258c0.009-0.022,0.019-0.082,0.001-0.003
								c0.004-0.018,0.016-0.036,0.023-0.053c0.018-0.039,0.036-0.078,0.055-0.117c0.081-0.163,0.173-0.32,0.278-0.47
								c0.025-0.035,0.05-0.07,0.076-0.105c0.028-0.037,0.003-0.015-0.006,0.008c0.007-0.017,0.033-0.041,0.045-0.056
								c0.058-0.07,0.118-0.138,0.182-0.204c0.06-0.062,0.122-0.122,0.186-0.18c0.036-0.032,0.072-0.063,0.109-0.094
								c0.015-0.012,0.03-0.024,0.045-0.036c0.076-0.061-0.063,0.047,0.015-0.012c0.081-0.061,0.144-0.122,0.172-0.224
								c0.025-0.09,0.014-0.209-0.038-0.289C405.162,418.556,404.917,418.45,404.749,418.576L404.749,418.576z"/>
						</g>
					</g>
					<g>
						<g>
							<path style="fill:#263238;" d="M404.401,415.535c-0.821,0.13-1.616,0.423-2.329,0.848c-0.168,0.1-0.245,0.342-0.134,0.513
								c0.109,0.169,0.333,0.242,0.513,0.134c0.341-0.203,0.672-0.362,1.01-0.483c0.37-0.133,0.752-0.229,1.14-0.29
								c0.194-0.031,0.319-0.284,0.262-0.461C404.794,415.585,404.61,415.502,404.401,415.535L404.401,415.535z"/>
						</g>
					</g>
					<g style="opacity:0.3;">
						<path d="M395.839,417.584c0.077,0.852-0.086,1.822-0.779,2.323c-0.43,0.31-0.982,0.381-1.508,0.442
							c-1.574,0.182-3.148,0.364-4.721,0.546l-0.026-0.042c-0.57-2.19-2.022-7.526-0.079-7.806c1.529-0.224,3.587,2.662,6.652,1.288
							C395.522,415.516,395.787,417.011,395.839,417.584z"/>
					</g>
				</g>
			</g>
			<path style="fill:#263238;" d="M392.132,338.914c-3.664-16.316-12.35-20.633-19.053-22.804
				c-17.915-5.95-53.452-11.595-53.452-11.595l1.505-7.965l-63.837,1.375c0,0,2.264,32.914,31.705,46.663
				c4.34,1.925,8.891,3.334,13.559,4.196c33.72,6.744,64.169,1.428,64.169,1.428l18.423,68.924l21.923-6.041L392.132,338.914z"/>
			<g>
				<path style="fill:#407BFF;" d="M307.619,212.485c-7.258,5.324-7.853,19.892,15.628,50.714l17.678-18.764
					c0,0-9.02-11.676-16.19-21.003C313.427,208.986,307.619,212.485,307.619,212.485z"/>
				<path style="fill:#407BFF;" d="M300.045,211.13c-5.841-0.105-16.818-1.124-40.642,3.89l-2.622,75.009
					c0,0,0.151,12.458,1.141,23.004c39.647,6.4,75.203,5.602,67.487-7.851c-0.169,0.347-1.543-3.474-3.143-16.122
					c-2.821-22.289-4.619-55.988-8.948-75.968C310.732,211.708,300.627,211.141,300.045,211.13z"/>
				<path style="opacity:0.2;enable-background:new    ;" d="M319.068,257.636l-3.256-20.812
					c3.764,10.925,3.688,16.278,10.977,22.616l-3.542,3.759L319.068,257.636z"/>
				<polygon style="opacity:0.2;enable-background:new    ;" points="258.359,264.432 259.68,264.569 263.928,242.085 
					266.068,266.586 258.124,267.998 				"/>
				<path style="fill:#B97964;" d="M242.824,252.339c0,0-3.565,35.175,2.928,38.691c3.302,1.788,34.574,13.66,34.574,13.66
					l4.48-9.734l-24.676-18.324l1.665-25.987L242.824,252.339z"/>
				<g>
					<path style="fill:#407BFF;" d="M259.404,215.029c0,0-10.776,1.12-15.394,16.622c-3.047,10.229-4.257,32.495-4.257,32.495
						l22.658,1.24l1.41-28.085L259.404,215.029z"/>
				</g>
			</g>
			<path style="opacity:0.3;enable-background:new    ;" d="M342.75,318.984c17.909,4.907,18.43,14.82,23.979,30.854
				c0,0-23.669,4.012-55.339-0.03l-6.258-13.63l9.956-23.491C327.521,312.929,330.698,315.918,342.75,318.984z"/>
			<g>
				<g>
					<path style="fill:#407BFF;" d="M371.174,415.663c-0.088-1.486-0.362-2.696-1.95-2.557l-2.25,0.197
						c-0.843,0.122-1.364,0.772-1.972,1.341c-4.598,4.299-7.362,0.01-9.346,0.3c-2.55,0.367,0.272,8.28,0.213,8.725l-1.415,9.862
						c-0.128,0.825,0.61,2.459,1.489,2.562c0.156,0.018,0.315,0.015,0.471-0.01c4.527-0.656,6.669-0.967,12.303-1.784l17.231-2.498
						c4.697-0.681,3.918-6.44,1.924-6.568c-8.961-0.533-12.806-2.881-15.974-4.547C371.896,420.688,371.309,417.947,371.174,415.663
						z"/>
					<path style="opacity:0.4;fill:#FFFFFF;" d="M385.947,431.803l-17.231,2.498c-5.634,0.817-7.776,1.127-12.303,1.784
						c-0.156,0.025-0.315,0.028-0.471,0.01c-0.597-0.07-1.121-0.845-1.361-1.595l-0.092-0.722l34.863-5.055
						C389.081,430.129,388.086,431.493,385.947,431.803z"/>
					<g>
						<g>
							<path style="fill:#263238;" d="M376.435,422.98c-0.68,0.837-1.201,1.78-1.536,2.807c-0.063,0.193,0.073,0.409,0.262,0.461
								c0.203,0.056,0.398-0.069,0.461-0.262c0.29-0.888,0.753-1.75,1.343-2.476c0.128-0.157,0.154-0.377,0-0.53
								C376.833,422.848,376.563,422.822,376.435,422.98L376.435,422.98z"/>
						</g>
					</g>
					<g>
						<g>
							<path style="fill:#263238;" d="M373.48,421.726c-0.623,0.796-1.114,1.669-1.465,2.618c-0.068,0.184,0.076,0.419,0.262,0.461
								c0.212,0.048,0.389-0.064,0.461-0.262c0.292-0.79,0.752-1.623,1.272-2.287c0.125-0.159,0.155-0.375,0-0.53
								C373.881,421.596,373.606,421.565,373.48,421.726L373.48,421.726z"/>
						</g>
					</g>
					<g>
						<g>
							<path style="fill:#263238;" d="M371.419,420.513c-0.682,0.513-1.188,1.209-1.443,2.027c-0.058,0.187,0.069,0.417,0.262,0.461
								c0.204,0.046,0.399-0.061,0.461-0.262c0.027-0.087,0.057-0.173,0.09-0.258c0.009-0.022,0.019-0.082,0-0.004
								c0.004-0.018,0.016-0.036,0.023-0.053c0.018-0.039,0.036-0.078,0.055-0.117c0.081-0.163,0.173-0.32,0.278-0.47
								c0.025-0.035,0.05-0.07,0.076-0.105c0.028-0.037,0.003-0.015-0.006,0.008c0.007-0.017,0.033-0.041,0.045-0.056
								c0.058-0.07,0.118-0.138,0.182-0.204c0.06-0.062,0.122-0.122,0.186-0.18c0.036-0.032,0.072-0.063,0.109-0.094
								c0.015-0.012,0.03-0.024,0.045-0.036c0.076-0.061-0.063,0.047,0.015-0.012c0.081-0.061,0.144-0.122,0.172-0.224
								c0.025-0.09,0.014-0.209-0.038-0.289C371.833,420.493,371.587,420.387,371.419,420.513L371.419,420.513z"/>
						</g>
					</g>
					<g>
						<g>
							<path style="fill:#263238;" d="M371.072,417.471c-0.821,0.13-1.616,0.423-2.329,0.848c-0.168,0.1-0.245,0.342-0.135,0.513
								c0.109,0.169,0.333,0.242,0.513,0.134c0.341-0.203,0.672-0.362,1.01-0.483c0.37-0.133,0.752-0.229,1.14-0.29
								c0.194-0.031,0.319-0.284,0.262-0.461C371.465,417.522,371.28,417.439,371.072,417.471L371.072,417.471z"/>
						</g>
					</g>
					<g style="opacity:0.3;">
						<path d="M362.509,419.52c0.077,0.852-0.086,1.822-0.779,2.323c-0.43,0.31-0.982,0.381-1.508,0.442
							c-1.574,0.182-3.148,0.364-4.721,0.546l-0.026-0.042c-0.57-2.19-2.022-7.526-0.079-7.806c1.529-0.223,3.587,2.662,6.652,1.288
							C362.192,417.453,362.458,418.948,362.509,419.52z"/>
					</g>
				</g>
			</g>
			<path style="fill:#263238;" d="M249.944,313.405c0,0-0.819,34.416,20.653,36.392c26.904,2.476,60.56,1.423,60.56,1.423
				l19.907,68.834l22.681-4.158c0,0-7.532-80.004-24.469-91.869c-4.575-3.2-50.879-14.066-50.879-14.066L249.944,313.405z"/>
			<path style="fill:#407BFF;" d="M190.78,245.291h5.44c5.168,0,10.359-0.154,15.527,0c8.858,0.105,16.433,6.399,18.158,15.088
				c1.185,6.116,1.375,12.516,2.015,18.691c2.671,25.483,5.341,50.969,8.012,76.46c0.64,6.104-0.285,18.561,6.969,21.038
				c2.655,0.913,6.116,0.45,8.866,0.45h56.097c3.129,0,6.246-0.059,9.375,0c2.521,0.039,5.023,0.438,7.431,1.185v4.48
				c-1.121-0.474-2.289-0.828-3.485-1.055c-3.198-0.415-6.428-0.534-9.648-0.355h-55.173c-9.126,0-21.24,1.327-23.124-10.821
				c-0.889-5.796-1.185-11.734-1.849-17.565c-2.631-25.103-5.258-50.207-7.882-75.31c-0.427-3.951-0.845-7.921-1.256-11.912
				c-0.296-2.88-0.462-5.665-1.825-8.297c-3.84-7.526-11.189-7.799-18.478-7.799H190.78c-1.182,0-2.139-0.958-2.139-2.139
				C188.641,246.249,189.599,245.291,190.78,245.291z"/>
			<path style="opacity:0.7;fill:#FFFFFF;enable-background:new    ;" d="M190.78,245.291h5.44c5.168,0,10.359-0.154,15.527,0
				c8.858,0.105,16.433,6.399,18.158,15.088c1.185,6.116,1.375,12.516,2.015,18.691c2.671,25.483,5.341,50.969,8.012,76.46
				c0.64,6.104-0.285,18.561,6.969,21.038c2.655,0.913,6.116,0.45,8.866,0.45h56.097c3.129,0,6.246-0.059,9.375,0
				c2.521,0.039,5.023,0.438,7.431,1.185v4.48c-1.121-0.474-2.289-0.828-3.485-1.055c-3.198-0.415-6.428-0.534-9.648-0.355h-55.173
				c-9.126,0-21.24,1.327-23.124-10.821c-0.889-5.796-1.185-11.734-1.849-17.565c-2.631-25.103-5.258-50.207-7.882-75.31
				c-0.427-3.951-0.845-7.921-1.256-11.912c-0.296-2.88-0.462-5.665-1.825-8.297c-3.84-7.526-11.189-7.799-18.478-7.799H190.78
				c-1.182,0-2.139-0.958-2.139-2.139C188.641,246.249,189.599,245.291,190.78,245.291z"/>
			<path style="fill:#407BFF;" d="M188.232,250.459h20.967c3.923,0,3.923-6.08,0-6.08h-20.967
				C184.321,244.379,184.309,250.459,188.232,250.459z"/>
			<path style="fill:#263238;" d="M317.292,448.433c-8.605,0-15.61-7.775-15.61-17.34c0-9.565,7.005-17.352,15.61-17.352
				c8.605,0,15.598,7.775,15.598,17.352C332.89,440.67,325.885,448.433,317.292,448.433z M317.292,421.042
				c-4.575,0-8.297,4.504-8.297,10.051c0,5.547,3.722,10.039,8.297,10.039c4.575,0,8.297-4.504,8.297-10.039
				S321.867,421.042,317.292,421.042z"/>
			<g id="freepik--character-2--inject-124">
				<g id="freepik--group--inject-124_00000103949486916080949300000001949967601716932535_">
					<path style="fill:#EBB373;" d="M304.138,312.561c-2.625,1.298-8.059,10.444-12.576,15.655
						c-8.184,9.443-12.665,15.704-12.665,15.704l-5.296-4.036c7.004-27.375,26.179-38.606,26.179-38.606L304.138,312.561z"/>
					<path style="fill:#EBB373;" d="M332.333,318.468c-4.388,5.281-12.086,12.731-11.974,13.95
						c1.353,14.811-0.225,26.281-0.225,26.281h-6.927c-1.833-10.708-4.308-25.97-2.983-30.959
						c2.71-10.205,11.644-16.496,11.644-16.496L332.333,318.468z"/>
					<path style="fill:#263238;" d="M324.708,284.148l35.721,6.264c1.484,8.309-4.348,18.504-9.576,21.183
						c-12.753,6.534-22.867,19.707-22.867,19.707l-9.734-15.03l-12.983,5.761l-3.961-5.148l-9.746-13.835
						C304.531,294.076,324.137,287.305,324.708,284.148z"/>
					<path style="opacity:0.3;fill:#FFFFFF;" d="M324.708,284.148l35.721,6.264c1.484,8.309-4.348,18.504-9.576,21.183
						c-12.753,6.534-22.867,19.707-22.867,19.707l-9.734-15.03l-12.983,5.761l-3.961-5.148l-9.746-13.835
						C304.531,294.076,324.137,287.305,324.708,284.148z"/>
					<path style="opacity:0.2;enable-background:new    ;" d="M325.865,300.459l-8.618,12.963l1.004,2.849l-12.983,5.761
						l-3.961-5.148C312.249,306.526,325.916,300.435,325.865,300.459z"/>
				</g>
				<g>
					<g>
						<path style="fill:#263238;" d="M274.61,336.375l2.012,1.177c0.455,0.266,0.707,0.803,0.705,1.423
							c-0.008,2.676,1.306,2.431,3.666,1.292c0.871,0.351,0.408,1.639,0.291,1.989l-2.53,7.777
							c-0.206,0.652-0.822,1.098-1.375,0.996c-0.098-0.018-0.191-0.053-0.274-0.105c-2.443-1.429-3.6-2.105-6.641-3.884
							l-9.301-5.441c-2.535-1.483-1.45-5.027,0.545-4.569c5.462,1.439,9.303,1.512,11.763,0.639
							C273.916,337.525,273.771,337.138,274.61,336.375z"/>
						<path style="opacity:0.4;enable-background:new    ;" d="M274.61,336.375l2.012,1.177c0.455,0.266,0.707,0.803,0.705,1.423
							c-0.008,2.676,1.306,2.431,3.666,1.292c0.871,0.351,0.408,1.639,0.291,1.989l-2.53,7.777
							c-0.206,0.652-0.822,1.098-1.375,0.996c-0.098-0.018-0.191-0.053-0.274-0.105c-2.443-1.429-3.6-2.105-6.641-3.884
							l-9.301-5.441c-2.535-1.483-1.45-5.027,0.545-4.569c5.462,1.439,9.303,1.512,11.763,0.639
							C273.916,337.525,273.771,337.138,274.61,336.375z"/>
						<path style="fill:#407BFF;" d="M270.235,336.97c0.646,0.352,1.338,0.619,2.064,0.796c0.073,0.008,0.151-0.055,0.173-0.141
							c0.012-0.046,0.005-0.092-0.018-0.124c-0.181-0.339-1.83-3.293-2.789-3.099c-0.175,0.028-0.34,0.164-0.426,0.351
							c-0.189,0.331-0.242,0.712-0.143,1.028C269.326,336.332,269.725,336.749,270.235,336.97z M272.017,337.346
							c-0.844-0.26-2.359-0.835-2.616-1.708c-0.062-0.234-0.024-0.507,0.104-0.75c0.032-0.082,0.102-0.142,0.177-0.152
							C270.21,334.633,271.311,336.155,272.017,337.346z"/>
						<path style="fill:#407BFF;" d="M272.268,337.76c0.02,0.025,0.047,0.041,0.079,0.046c0.055-0.017,0.102-0.068,0.12-0.13
							c0.078-0.132,1.312-3.6-0.183-4.208c-0.375-0.142-0.595,0.007-0.71,0.174c-0.57,0.778,0.098,3.269,0.621,4.108L272.268,337.76
							z M272.276,333.797c0.874,0.511,0.314,2.629,0.058,3.457c-0.501-1.027-0.891-2.999-0.523-3.462
							c0.024-0.042,0.092-0.157,0.368-0.041L272.276,333.797z"/>
						
							<path style="fill:none;stroke:#407BFF;stroke-width:0.5;stroke-linecap:round;stroke-linejoin:round;stroke-miterlimit:10;" d="
							M272.068,337.515c0.623,0.525,0.961,1.423,0.897,2.387"/>
						
							<path style="fill:none;stroke:#407BFF;stroke-width:0.5;stroke-linecap:round;stroke-linejoin:round;stroke-miterlimit:10;" d="
							M270.124,337.97c0.623,0.525,0.961,1.423,0.897,2.387"/>
						
							<path style="fill:none;stroke:#407BFF;stroke-width:0.5;stroke-linecap:round;stroke-linejoin:round;stroke-miterlimit:10;" d="
							M267.984,338.058c0.623,0.525,0.961,1.423,0.897,2.387"/>
					</g>
				</g>
				<line style="fill:none;" x1="259.165" y1="362.336" x2="259.231" y2="362.086"/>
				<g>
					<g>
						<path style="fill:#263238;" d="M312.537,354.76l2.331-0.046c0.527-0.011,1.022,0.316,1.344,0.846
							c1.39,2.287,2.383,1.392,3.801-0.812c0.927-0.155,1.203,1.185,1.286,1.544l1.901,7.955c0.164,0.664-0.128,1.366-0.653,1.567
							c-0.093,0.036-0.191,0.054-0.289,0.054c-2.83,0.056-4.169,0.083-7.692,0.153l-10.773,0.214
							c-2.937,0.058-3.861-3.531-1.92-4.182c5.41-1.623,8.725-3.566,10.367-5.594C312.545,356.104,312.219,355.849,312.537,354.76z"
							/>
						<path style="fill:#407BFF;" d="M309.116,357.552c0.735-0.037,1.465-0.17,2.177-0.398c0.067-0.032,0.1-0.126,0.074-0.21
							c-0.014-0.046-0.043-0.081-0.08-0.097c-0.331-0.195-3.279-1.854-3.997-1.187c-0.135,0.115-0.205,0.318-0.18,0.522
							c0.011,0.381,0.165,0.734,0.415,0.951C308.008,357.482,308.565,357.629,309.116,357.552z M310.832,356.942
							c-0.856,0.219-2.448,0.519-3.122-0.092c-0.175-0.167-0.285-0.42-0.303-0.694c-0.015-0.086,0.013-0.175,0.072-0.222
							C307.874,355.571,309.608,356.295,310.832,356.942z"/>
						<path style="fill:#407BFF;" d="M311.262,357.164c0.03,0.011,0.062,0.01,0.091-0.002c0.038-0.044,0.052-0.112,0.035-0.173
							c-0.003-0.153-0.76-3.756-2.353-3.494c-0.394,0.075-0.504,0.317-0.515,0.519c-0.08,0.961,1.79,2.737,2.674,3.181
							L311.262,357.164z M309.201,353.779c1.012-0.02,1.64,2.078,1.854,2.918c-0.964-0.614-2.325-2.094-2.253-2.68
							c-0.001-0.048-0.004-0.182,0.292-0.227L309.201,353.779z"/>
						
							<path style="fill:none;stroke:#407BFF;stroke-width:0.5;stroke-linecap:round;stroke-linejoin:round;stroke-miterlimit:10;" d="
							M310.964,357.06c0.805,0.122,1.562,0.712,2.011,1.568"/>
						
							<path style="fill:none;stroke:#407BFF;stroke-width:0.5;stroke-linecap:round;stroke-linejoin:round;stroke-miterlimit:10;" d="
							M309.543,358.463c0.806,0.122,1.562,0.712,2.011,1.568"/>
						
							<path style="fill:none;stroke:#407BFF;stroke-width:0.5;stroke-linecap:round;stroke-linejoin:round;stroke-miterlimit:10;" d="
							M307.763,359.655c0.806,0.122,1.562,0.712,2.011,1.568"/>
					</g>
				</g>
			</g>
			<path style="fill:#263238;" d="M239.707,448.433c-29.394,0-53.336-27.178-53.336-60.578s23.918-60.589,53.336-60.589
				c29.418,0,53.336,27.177,53.336,60.589S269.101,448.433,239.707,448.433z M239.707,334.567
				c-25.376,0-46.011,23.906-46.011,53.336c0,29.43,20.635,53.277,46.011,53.277s46.011-23.894,46.011-53.277
				C285.718,358.521,265.071,334.567,239.707,334.567z"/>
			<path style="fill:#407BFF;" d="M239.707,437.944c-24.191,0-43.854-22.449-43.854-50.041c0-27.592,19.675-50.053,43.854-50.053
				s43.854,22.448,43.854,50.053C283.561,415.507,263.886,437.944,239.707,437.944z M239.707,341.098
				c-22.401,0-40.618,20.991-40.618,46.805c0,25.815,18.217,46.793,40.618,46.793c22.401,0,40.618-20.991,40.618-46.793
				c0-25.803-18.229-46.853-40.618-46.853V341.098z"/>
			<g style="opacity:0.7;">
				<path style="fill:#FFFFFF;" d="M239.707,437.944c-24.191,0-43.854-22.449-43.854-50.041c0-27.592,19.675-50.053,43.854-50.053
					s43.854,22.448,43.854,50.053C283.561,415.507,263.886,437.944,239.707,437.944z M239.707,341.098
					c-22.401,0-40.618,20.991-40.618,46.805c0,25.815,18.217,46.793,40.618,46.793c22.401,0,40.618-20.991,40.618-46.793
					c0-25.803-18.229-46.853-40.618-46.853V341.098z"/>
			</g>
			<g>
				<path style="fill:#263238;" d="M231.872,313.422c26.206,0,52.423-0.142,78.641,0c8.297,0,14.721,5.571,14.97,14.14
					c0.107,4.042,0,8.107,0,12.149v75.5c0,6.661,0.533,15.183-8.771,15.657c-2.738,0.13-2.75,4.397,0,4.255
					c8.546-0.427,13.038-6.981,13.038-14.981v-73.627c0-12.244,3.07-29.714-10.798-35.806c-4.741-2.086-10.205-1.541-15.266-1.541
					h-71.814c-1.175,0.088-2.056,1.111-1.968,2.286C229.982,312.507,230.819,313.344,231.872,313.422z"/>
				<g style="opacity:0.7;">
					<path style="fill:#FFFFFF;" d="M231.872,313.422c26.206,0,52.423-0.142,78.641,0c8.297,0,14.721,5.571,14.97,14.14
						c0.107,4.042,0,8.107,0,12.149v75.5c0,6.661,0.533,15.183-8.771,15.657c-2.738,0.13-2.75,4.397,0,4.255
						c8.546-0.427,13.038-6.981,13.038-14.981v-73.627c0-12.244,3.07-29.714-10.798-35.806c-4.741-2.086-10.205-1.541-15.266-1.541
						h-71.814c-1.175,0.088-2.056,1.111-1.968,2.286C229.982,312.507,230.819,313.344,231.872,313.422z"/>
				</g>
				<path style="fill:#407BFF;" d="M250.137,304.249h50.776c2.422,0,4.385,1.963,4.385,4.385v1.778c0,2.422-1.963,4.385-4.385,4.385
					h-50.776c-2.422,0-4.385-1.964-4.385-4.385v-1.778C245.751,306.212,247.715,304.249,250.137,304.249z"/>
				<path style="opacity:0.3;enable-background:new    ;" d="M250.137,304.249h50.776c2.422,0,4.385,1.963,4.385,4.385v1.778
					c0,2.422-1.963,4.385-4.385,4.385h-50.776c-2.422,0-4.385-1.964-4.385-4.385v-1.778
					C245.751,306.212,247.715,304.249,250.137,304.249z"/>
			</g>
			<path style="fill:#B97964;" d="M296.533,303.757c0,0,3.469,11.99,2.626,12.464c-0.843,0.474-3.786,1.213-5.623,0.138
				c0,0-2.567,1.334-4.39-0.594l-0.988-1.367c0,0-1.32,2.754-4.384,0.077c-3.064-2.677-4.418-7.492-4.785-10.837
				c-0.368-3.345,1.323-11.063,1.874-10.877c0.551,0.186,14.297,5.286,17.308,6.606c3.01,1.32,5.287,6.015,5.244,6.37
				L296.533,303.757z"/>
			<g>
				<g>
					<g>
						<g>
							<path style="fill:#B97964;" d="M275.916,213.017c0,0,1.579-7.126-1.644-19.953c0.001-0.014,0.68-0.286,0.681-0.3
								c-0.443-1.794-0.924-3.454-1.382-4.894c-0.01-0.042-0.009-0.055-0.009-0.055l16.977,11.358
								c-0.554,4.045,0.62,11.942,1.37,15.286c0,0,1.976,6.079-6.014,6.053C280.057,220.493,275.916,213.017,275.916,213.017z"/>
							<path style="opacity:0.2;" d="M290.632,204.891l-9.913-2.613c0.795,3.141,3.413,6.924,10.356,7.475
								C291.076,209.753,290.507,206.249,290.632,204.891z"/>
						</g>
						<g>
							<path style="fill:#B97964;" d="M273.732,179.374c0.774,11.051,0.988,17.299,6.631,22.875
								c8.489,8.387,21.798,3.334,24.348-7.758c2.295-9.984,0.644-26.379-10.238-30.582
								C283.752,159.767,272.958,168.323,273.732,179.374z"/>
							<path style="fill:#263238;" d="M271.047,166.264c3.649-11.124,37.244-17.199,34.908,1.329
								c-0.9,7.139-12.24,4.014-17.334,1.853c-2.364-1.003-5.021-1.055-7.441-0.195l0,0c-0.657-0.14-1.939,0.638-2.589,2.681
								c0,0,0.63,16.948-4.132,21.896c-3.877-1.85-4.16-8.567-5.411-12.557C267.183,175.326,266.594,166.714,271.047,166.264z"/>
							<path style="fill:#B97964;" d="M269.444,188.628c0.908,2.839,3.049,4.982,5.252,6.052c3.314,1.611,4.513-2.007,4.17-5.488
								c-0.308-3.133-1.256-6.945-4.86-7.102C270.455,181.935,268.406,185.382,269.444,188.628z"/>
							<path style="fill:#263238;" d="M289.585,182.431c0.01,1.132,0.618,2.038,1.359,2.024c0.741-0.013,1.333-0.942,1.323-2.073
								c-0.009-1.132-0.618-2.038-1.358-2.024C290.169,180.371,289.576,181.299,289.585,182.431z"/>
							<path style="fill:#263238;" d="M300.684,182.556c0.009,1.132,0.618,2.038,1.358,2.024c0.741-0.014,1.333-0.942,1.324-2.074
								c-0.01-1.132-0.618-2.038-1.358-2.024C301.267,180.497,300.675,181.425,300.684,182.556z"/>
							<path style="fill:#A24E3F;" d="M297.068,181.96c0,0,3.63,5.591,4.798,7.871c-1.563,1.436-4.281,0.803-4.281,0.803
								L297.068,181.96z"/>
							<path style="fill:#263238;" d="M286.774,177.121c0.172,0.068,0.375,0.045,0.531-0.079c1.858-1.475,3.72-0.892,3.738-0.886
								c0.278,0.09,0.579-0.061,0.673-0.337c0.093-0.277-0.058-0.575-0.334-0.666c-0.098-0.032-2.431-0.763-4.735,1.067
								c-0.23,0.183-0.269,0.515-0.087,0.742C286.617,177.036,286.692,177.089,286.774,177.121z"/>
							
								<path style="fill:none;stroke:#263238;stroke-width:0.75;stroke-linecap:round;stroke-linejoin:round;stroke-miterlimit:10;" d="
								M293.908,194.271c-1.835,0.03-3.267-0.874-4.7-2.228"/>
						</g>
						
							<path style="opacity:0.2;fill:none;stroke:#000000;stroke-width:0.5;stroke-linecap:round;stroke-linejoin:round;stroke-miterlimit:10;" d="
							M271.943,185.55c0.44-0.664,1.346-0.915,2.121-0.731c0.775,0.184,1.422,0.731,1.899,1.368
							c0.573,0.765,0.941,1.682,1.057,2.631"/>
					</g>
					<path style="fill:#263238;" d="M305.54,177.739c0.098-0.022,0.191-0.072,0.267-0.151c0.203-0.212,0.199-0.548-0.01-0.751
						c-2.098-2.032-4.471-1.483-4.58-1.472c-0.284,0.068-0.463,0.353-0.399,0.638c0.064,0.284,0.344,0.461,0.627,0.397
						c0.098-0.027,1.931-0.426,3.615,1.204C305.191,177.732,305.373,177.776,305.54,177.739z"/>
				</g>
			</g>
			<g>
				<g>
					<rect x="348.63" y="432.664" style="fill:#263238;" width="61.4" height="4.924"/>
					<rect x="348.63" y="432.664" style="opacity:0.7;fill:#FFFFFF;" width="61.4" height="4.924"/>
				</g>
				<polygon style="fill:#263238;" points="325.841,393.005 348.924,437.007 352.964,435.124 329.805,390.476 				"/>
				<polygon style="opacity:0.7;fill:#FFFFFF;" points="325.841,393.005 348.924,437.007 352.964,435.124 329.805,390.476 				"/>
			</g>
		</g>
		<path style="fill:#EBB373;" d="M197.778,244.392c0,0,4.461,6.586,3.883,7.208c-0.577,0.622-2.837,2.026-4.658,1.62
			c0,0-1.786,1.801-3.825,0.679l-1.191-0.877c0,0-0.365,2.653-3.64,1.238c-3.275-1.416-4.693-4.86-5.388-7.728
			c-0.726-2.996-1.222-8.589-1.222-8.589s9.736-0.606,12.603-0.309c2.867,0.297,8.565,6.315,8.624,6.623L197.778,244.392z"/>
		<g>
			<g>
				<path style="fill:#EBB373;" d="M332.624,258.86c0,0-3.877,12.253-4.28,14.763c-0.169,1.05-2.489,4.906-5.51,5.428
					c-8.421,1.457-22.829,2.428-22.842,1.696l0.254-5.576l17.173-4.894l5.19-16.17L332.624,258.86z"/>
			</g>
			<g>
				<g>
					<g>
						<g>
							<g>
								<g>
									<g>
										<path style="fill:#EBB373;" d="M307.01,273.82c0,0-1.091-2.357-3.115-3.074c-2.024-0.717-3.45-1.828-4.992-2.257
											c-1.542-0.429-1.412,1.163-0.582,1.991c0.83,0.828,2.829,1.981,2.106,2.504c-0.723,0.523-8.351,1.332-9.271,2.172
											c-0.92,0.839,0.355,1.094,0.355,1.094s-1.709,0.194-1.949,1.005c-0.24,0.81,0.87,1.011,0.87,1.011
											s-1.143,0.171-0.93,0.963c0.213,0.792,7.162,0.685,7.437,0.851c0,0-4.166-0.494-4.644,0.45
											c-0.477,0.944,1.826,1.34,3.656,1.696c1.83,0.355,4.095,0.072,5.908-0.509c2.262-0.725,5.537-1.183,5.897-3.354
											C308.118,276.191,307.01,273.82,307.01,273.82z"/>
									</g>
								</g>
							</g>
						</g>
						<g style="opacity:0.2;">
							<g>
								<g>
									<g>
										<g>
											<path d="M290.7,278.414c1.954-0.21,3.913-0.354,5.861-0.425c0.034,0.513,0.109,1.013,0.215,1.518
												c0.061,0.248,0.411,0.067,0.362-0.177c-0.33-1.516-0.309-3.117,0.053-4.73c0.058-0.261-0.302-0.287-0.36-0.026
												c-0.09,0.403-0.158,0.795-0.203,1.194c-0.023-0.027-0.058-0.038-0.096-0.037c-1.525-0.06-3.059,0.067-4.602,0.382
												c-0.233,0.053-0.22,0.451,0.024,0.402c1.509-0.307,3.012-0.438,4.499-0.377c0.057-0.001,0.43,0.487,0.467,0.448
												c-0.055,0.51-0.397,0.508-0.379,1.01c-1.948,0.072-3.9,0.212-5.862,0.426C290.442,278.046,290.463,278.44,290.7,278.414z
												"/>
										</g>
									</g>
								</g>
							</g>
						</g>
						<g style="opacity:0.2;">
							<g>
								<g>
									<g>
										<g>
											<path d="M305.065,277.574c-2.289-0.459-3.816-2.056-3.992-4.114c-0.018-0.233-0.433-0.188-0.415,0.045
												c0.187,2.234,1.853,3.926,4.317,4.428C305.232,277.977,305.311,277.624,305.065,277.574z"/>
										</g>
									</g>
								</g>
							</g>
						</g>
					</g>
				</g>
				
					<path style="opacity:0.2;fill:none;stroke:#000000;stroke-width:0.5;stroke-linecap:round;stroke-linejoin:round;stroke-miterlimit:10;" d="
					M293.086,280.131c1.043-0.094,2.82-0.05,3.86,0.074"/>
			</g>
			<g>
				<path style="fill:#263238;" d="M321.655,229.962c0.649-0.984,1.564-1.809,1.995-2.906c0.948-2.413-0.694-5.437,0.7-7.623
					c0.492-0.772,1.301-1.304,1.78-2.084c0.531-0.866,0.593-1.926,0.734-2.931c0.672-4.774,3.557-9.19,7.659-11.723l0.921,7.822
					c1.719,8.452,2.341,17.126,1.845,25.736c-4.508-0.672-9.016-1.343-13.525-2.015c-0.866-0.129-1.815-0.304-2.365-0.984
					C320.658,232.337,321.006,230.945,321.655,229.962z"/>
			</g>
			<g>
				<path style="fill:#407BFF;" d="M331.403,239.831c-5.94,0.93-10.073,12.346-15.364,22.353l13.876,8.711
					c0,0,8.611-14.16,10.846-16.764C342.998,251.526,331.403,239.831,331.403,239.831z"/>
				<path style="opacity:0.4;fill:#FFFFFF;" d="M331.403,239.831c-5.94,0.93-10.073,12.346-15.364,22.353l13.876,8.711
					c0,0,8.611-14.16,10.846-16.764C342.998,251.526,331.403,239.831,331.403,239.831z"/>
				<path style="fill:#407BFF;" d="M361.632,292.242c-0.738-3.747-0.389-9.824-0.389-9.824c0.344-13.589,0.387-27.967-0.004-32.682
					c-0.153-1.849-0.803-6.962-5.546-8.433c-4.7-1.458-11.727-1.5-24.268-1.464c0,0-3.091,5.182-6.931,15.062
					c0,0-1.382,10.415-2.317,17.143l-2.409,15.247C322.365,291.553,337.016,295.136,361.632,292.242z"/>
				<path style="opacity:0.4;fill:#FFFFFF;" d="M361.632,292.242c-0.738-3.747-0.389-9.824-0.389-9.824
					c0.344-13.589,0.387-27.967-0.004-32.682c-0.153-1.849-0.803-6.962-5.546-8.433c-4.7-1.458-11.727-1.5-24.268-1.464
					c0,0-3.091,5.182-6.931,15.062c0,0-1.382,10.415-2.317,17.143l-2.409,15.247C322.365,291.553,337.016,295.136,361.632,292.242z"
					/>
				<polygon style="fill:#FFFFFF;" points="340.669,263.369 336.053,267.06 336.359,274.061 330.715,268.976 325.384,271.481 
					328.135,265.733 325.384,260.715 330.35,261.542 334.391,255.704 335.248,261.982 				"/>
			</g>
			<g>
				<g>
					<g>
						<path style="fill:#EBB373;" d="M349.094,228.272c-0.944,2.543-0.62,2.284-0.532,4.995c0.095,2.939,0.231,6.898,0.231,6.898
							c-0.404,0.756-3.298,2.691-6.383,3.683c-4.675,1.503-6.327,0.292-5.732-3.605c0.432-2.829-0.506-4.97-2.691-6.485
							C329.031,230.237,349.094,228.272,349.094,228.272z"/>
						<path style="opacity:0.2;enable-background:new    ;" d="M349.094,228.272c-0.944,2.543-1.224,2.986-1.651,5.665
							c-2.429,4.127-6.666,5.202-10.688,5.641c0.102-1.646-0.351-4.578-2.752-5.863
							C329.031,230.237,349.094,228.272,349.094,228.272z"/>
						<path style="fill:#263238;" d="M333.604,203.801c0,0-5.573,3.587-4.224,10.115c1.349,6.527,11.457-5.267,11.457-5.267
							L333.604,203.801z"/>
						<path style="fill:#EBB373;" d="M356.622,219.841c-3.602,8.089-5.236,13.021-11.493,15.537
							c-9.415,3.816-19.55-4.174-18.75-13.267c0.673-8.19,6.461-20.023,16.796-19.998
							C353.51,202.138,360.211,211.774,356.622,219.841z"/>
						<path style="fill:#263238;" d="M340.701,213.041c-0.047-0.097-0.065-0.206-0.054-0.313c0.082-0.277,0.368-0.439,0.648-0.367
							c1.632,0.387,2.967,1.555,3.568,3.12c0.089,0.269-0.057,0.56-0.326,0.648c-0.002,0.001-0.003,0.001-0.005,0.002l0,0
							c-0.272,0.082-0.561-0.063-0.658-0.331l0,0c-0.509-1.236-1.591-2.145-2.897-2.431
							C340.844,213.302,340.745,213.183,340.701,213.041z"/>
						<path style="fill:#263238;" d="M330.287,209.642c-0.096-0.05-0.174-0.127-0.225-0.222c-0.102-0.27,0.032-0.572,0.3-0.678
							c1.549-0.64,3.312-0.483,4.724,0.419c0.233,0.161,0.292,0.481,0.131,0.714c-0.003,0.005-0.007,0.009-0.01,0.014l0,0
							c-0.173,0.225-0.491,0.277-0.728,0.122l0,0c-1.14-0.7-2.55-0.797-3.775-0.259
							C330.556,209.775,330.404,209.736,330.287,209.642z"/>
						<path style="fill:#E4873E;" d="M333.93,218.714l-3.024,1.219c0,0,0.36,1.192,2.652,2.121L333.93,218.714z"/>
						<path style="fill:#263238;" d="M340.35,204.795c0,0,5.309-4.537,7.264-4.108c1.955,0.429,7.969,2.593,11.053,8.612
							c3.084,6.019,2.996,17.54,2.927,19.382c-0.163,4.349-0.104,10.102-0.104,10.102l-13.645-0.429
							c-1.77-3.902,1.624-14.219,0.203-15.7c-3.814-3.977-5.24-8.178-6.346-10.451c-1.206-2.478-1.455-6.943-1.455-6.943
							l-6.627,0.893l-3.259,2.59c0,0,1.128-2.291,2.986-4.997c1.859-2.706,9.05-4.208,11.807-3.597
							c2.757,0.611,2.303,1.515,2.303,1.515L340.35,204.795z"/>
						<path style="fill:#EBB373;" d="M347.797,223.056c0,0,3.274-4.23,5.347-2.098c2.073,2.132-0.465,9.949-4.116,9.007
							C345.376,229.023,345.486,225.191,347.797,223.056z"/>
						<path style="fill:#263238;" d="M332.008,224.668c-0.164,1.042,0.369,2.961,0.673,3.635l0.655,0.03
							c2.945,0.122,4.362-0.802,5.037-1.868c0.484-0.836,0.66-1.815,0.499-2.767c-1.611,0.876-4.352,0.978-5.865,0.974
							C332.399,224.698,332.008,224.668,332.008,224.668z"/>
						<path style="fill:#FFFFFF;" d="M333.023,224.692l0.229,1.074c2.789,0.101,4.77-0.2,5.68-1.008
							c0.029-0.348,0.01-0.698-0.058-1.04C337.277,224.594,334.536,224.696,333.023,224.692z"/>
						<path style="fill:#A24E3F;" d="M333.338,228.354c2.945,0.122,4.362-0.802,5.037-1.868c-1.129-0.023-2.253,0.154-3.32,0.523
							C334.357,227.27,333.757,227.739,333.338,228.354z"/>
						
							<path style="opacity:0.2;fill:none;stroke:#000000;stroke-width:0.5;stroke-linecap:round;stroke-linejoin:round;stroke-miterlimit:10;" d="
							M351.059,223.314c0.786,1.409-0.045,3.378-1.428,4.361"/>
					</g>
					<path style="fill:#263238;" d="M339.398,218.518c-0.181,0.863-0.797,1.472-1.366,1.339c-0.569-0.134-0.845-0.928-0.679-1.789
						c0.166-0.861,0.805-1.466,1.374-1.34C339.295,216.854,339.558,217.658,339.398,218.518z"/>
					<path style="fill:#263238;" d="M331.383,215.228c-0.188,0.863-0.804,1.473-1.366,1.339c-0.562-0.135-0.846-0.936-0.68-1.797
						c0.167-0.861,0.799-1.458,1.366-1.339C331.271,213.55,331.557,214.366,331.383,215.228z"/>
				</g>
			</g>
			<g>
				<path style="fill:#EBB373;" d="M362.549,257.029c0,0-0.497,14.809-0.475,17.746c0.031,4.264-1.35,6.208-4.573,7.674
					c-8.985,4.086-24.801,9.374-25.029,8.56l-1.343-6.305l17.761-10.479l-0.39-16.199L362.549,257.029z"/>
				<g>
					<g>
						<g>
							<g>
								<path style="fill:#EBB373;" d="M331.523,285.329c0,0-1.448-2.064-3.498-2.417s-3.6-1.177-5.14-1.335
									c-1.541-0.157-1.14,1.336-0.206,1.988c0.934,0.652,3.036,1.424,2.44,2.039c-0.596,0.615-7.71,2.625-8.438,3.573
									c-0.728,0.947,0.529,0.983,0.529,0.983s-1.592,0.463-1.678,1.273c-0.087,0.81,1.004,0.82,1.004,0.82
									s-1.057,0.348-0.717,1.067c0.34,0.719,6.931-0.513,7.221-0.4c0,0-4.048,0.207-4.338,1.183
									c-0.289,0.975,1.97,0.978,3.773,1.018c1.802,0.04,3.907-0.598,5.53-1.445c2.024-1.057,5.06-2.026,5.023-4.149
									C332.989,287.405,331.523,285.329,331.523,285.329z"/>
							</g>
						</g>
					</g>
				</g>
			</g>
			<path style="fill:#407BFF;" d="M364.781,268.003c0,0,2.896-25.019-9.088-26.701c-11.413-1.602-12.387,25.288-12.387,25.288
				L364.781,268.003z"/>
			<path style="opacity:0.4;fill:#FFFFFF;" d="M364.781,268.003c0,0,2.896-25.019-9.088-26.701
				c-11.413-1.602-12.387,25.288-12.387,25.288L364.781,268.003z"/>
			<g>
				<path style="fill:#263238;" d="M345.859,201.103c2.295-1.216,5.176-0.376,7.34,1.06c2.164,1.436,3.933,3.417,6.146,4.776
					c1.665,1.022,3.715,1.844,4.408,3.67c0.619,1.63-0.101,3.492,0.302,5.188c0.765,3.219,5.155,4.623,5.738,7.88
					c0.482,2.692-1.939,5.334-1.284,7.989c0.427,1.732,2.12,3.165,1.855,4.929c-0.176,1.175-1.234,2.063-2.373,2.403
					c-1.139,0.34-2.357,0.24-3.541,0.136c-4.23-0.37-8.46-0.739-12.69-1.109c0,0,3.356-11.514,3.703-11.348
					c0.347,0.167-3.553-12.427-3.553-12.427L345.859,201.103z"/>
			</g>
			<polygon style="opacity:0.2;" points="362.102,267.827 346.67,266.826 348.756,268.664 362.106,269.663 			"/>
			<g>
				<g>
					<path style="fill:#B97964;" d="M361.181,284.083c0,0-9.276,3.143-10.028,5.146c-0.753,2.003,2.276,1.622,2.276,1.622
						s-3.307,0.623-3.233,2.063c0.09,1.728,3.262,1.316,3.262,1.316s-2.68,0.619-2.527,1.896c0.158,1.324,3.771,1.113,3.771,1.113
						s-1.805,0.793-1.196,1.62c0.608,0.827,8.285,0.527,10.43-1.078c2.145-1.605,1.403-11.443,0.799-13.557
						c-0.604-2.113-0.41-2.131-3.356-5.185C361.192,280.85,361.219,282.648,361.181,284.083L361.181,284.083z"/>
				</g>
				<g>
					<path style="opacity:0.2;" d="M353.449,291.011c0.005-0.001,0.009-0.001,0.014-0.002l5.714-1.362
						c0.077-0.019,0.124-0.104,0.105-0.191c-0.019-0.087-0.099-0.144-0.173-0.125l-5.714,1.362
						c-0.077,0.019-0.124,0.104-0.105,0.191C353.307,290.966,353.377,291.02,353.449,291.011z"/>
				</g>
				<g>
					<path style="opacity:0.2;" d="M353.643,294.37c0.001,0,0.002,0,0.004-0.001l5.592-0.872c0.078-0.012,0.13-0.094,0.117-0.182
						c-0.013-0.089-0.074-0.137-0.165-0.138l-5.592,0.872c-0.078,0.012-0.13,0.094-0.117,0.182
						C353.495,294.318,353.567,294.379,353.643,294.37z"/>
				</g>
				<g>
					<path style="opacity:0.2;" d="M354.914,297.375l4.174-0.529c0.078-0.01,0.133-0.09,0.121-0.179
						c-0.011-0.088-0.084-0.152-0.162-0.143l-4.174,0.529c-0.078,0.01-0.132,0.09-0.121,0.179
						C354.763,297.32,354.835,297.385,354.914,297.375z"/>
				</g>
			</g>
			<polygon style="opacity:0.2;" points="323.03,260.386 319.918,279.505 321.342,279.295 323.518,262.044 325.084,250.384 			"/>
		</g>
	</g>
</g>
</svg>
